<svg width="459" height="309" viewBox="0 0 459 309" fill="none" xmlns="http://www.w3.org/2000/svg">
<path d="M458.968 199.211L455.417 192.959C456.984 190.41 457.896 187.41 457.896 184.2C457.896 174.961 450.404 167.477 441.172 167.477C431.934 167.477 424.449 174.968 424.449 184.2C424.449 193.439 431.941 200.923 441.172 200.923C445.03 200.923 448.58 199.614 451.407 197.421L451.4 197.428L458.968 199.211Z" fill="#D3D3FF"/>
<path d="M92.9549 13.402C95.336 12.3994 97.0348 9.94176 97.0487 7.05244C97.0627 3.25803 94.1942 0.173766 90.6365 0.152879C87.0788 0.138955 84.1826 3.19537 84.1686 6.98978C84.1547 9.91391 85.8604 12.3994 88.2694 13.402C78.3621 14.8919 78.8077 25.6694 78.8077 25.6694L102.243 25.7808C102.243 25.7738 102.779 14.8919 92.9549 13.402Z" fill="#D3D3FF"/>
<path d="M19.4997 240.496C16.3597 238.525 12.7603 237.286 9.07726 236.91C7.37151 236.736 5.5126 236.785 4.14801 237.815C3.85559 238.031 3.5771 238.358 3.63976 238.713C3.6885 238.978 3.91129 239.166 4.12016 239.326C8.36015 242.563 14.7724 242.974 19.4997 240.496Z" fill="#5245A8"/>
<path d="M19.2269 240.203C16.8668 238.358 14.4926 236.506 12.4945 234.278C10.4963 232.05 8.86716 229.405 8.27538 226.474C8.09436 225.582 8.03866 224.566 8.60957 223.863C13.9774 228.047 18.1896 233.471 19.2269 240.203Z" fill="#5245A8"/>
<path d="M19.4417 240.454C19.0379 237.516 18.8917 234.501 19.567 231.612C20.2423 228.722 21.8088 225.965 24.2734 224.315C25.1994 226.48 24.8026 228.98 24.1481 231.243C23.1386 234.745 21.5512 238.079 19.4765 241.073" fill="#5245A8"/>
<path d="M24.6974 249.881C21.5017 250.271 18.7238 251.956 16.3358 254.114C13.9477 256.272 12.2559 259.183 11.5527 262.323C14.6857 262.128 17.3453 259.921 19.2738 257.442C21.2024 254.964 22.5391 252.248 24.6556 249.93" fill="#5245A8"/>
<path d="M25.8527 251.392C23.2836 245.056 24.2096 237.418 28.2337 231.89C30.0509 238.358 29.3825 245.669 25.8527 251.392Z" fill="#5245A8"/>
<path d="M32.7976 259.669C29.9013 259.488 26.9493 260.178 24.436 261.626C21.9226 263.074 19.8409 265.274 18.539 267.871C18.3649 268.226 18.2048 268.672 18.4415 268.992C18.6504 269.263 19.0472 269.291 19.3884 269.27C22.2011 269.089 24.6866 267.398 26.7405 265.476C28.7943 263.554 30.5836 261.326 32.8533 259.663" fill="#5245A8"/>
<path d="M32.5747 259.217C31.0778 254.434 30.9873 249.219 32.3102 244.387C32.8323 242.48 33.7096 240.468 35.478 239.577C35.6311 239.5 35.8052 239.43 35.9653 239.493C36.1185 239.549 36.202 239.702 36.2717 239.848C36.8983 241.157 37.0793 242.647 37.0166 244.102C36.954 245.557 36.6476 246.984 36.3482 248.412C35.7913 251.043 35.4989 253.877 34.0507 256.147C33.7096 256.683 33.4032 257.268 33.1317 257.845C32.8602 258.423 32.8532 258.625 32.6026 259.085" fill="#5245A8"/>
<path d="M50.9707 261.96C49.6061 256.773 51.0543 250.486 54.3195 246.239C54.5632 245.926 54.8765 245.592 55.2734 245.627C55.8721 245.682 56.0323 246.483 56.0044 247.089C55.7677 252.387 54.0062 257.609 50.9707 261.96Z" fill="#5245A8"/>
<path d="M52.6328 263.095C58.9336 264.731 66.1604 263.144 71.4029 259.28C68.2978 257.706 64.6357 257.254 61.2451 258.034C57.8545 258.813 54.7493 260.324 52.6328 263.095Z" fill="#5245A8"/>
<path d="M54.0312 259.641C57.5611 253.891 64.3214 250.131 71.0678 249.79C70.288 252.533 68.0392 254.663 65.498 255.951C62.9568 257.239 60.1162 257.796 57.3244 258.339C56.2313 258.555 54.7414 258.785 54.0312 259.641Z" fill="#5245A8"/>
<path d="M51.329 242.884C52.2829 239.612 53.2437 236.312 53.5082 232.907C53.7728 229.509 53.2854 225.959 51.524 223.042C48.2309 229.419 47.8967 236.868 51.2316 243.225" fill="#5245A8"/>
<path d="M62.4219 237.279C66.2789 230.275 74.1393 224.678 82.0971 223.891C79.0337 231.535 70.6582 237.439 62.4219 237.279Z" fill="#5245A8"/>
<path d="M60 238.651C65.7508 239.528 70.6452 243.197 76.0201 245.425C77.1688 245.899 78.4081 246.282 79.6404 246.121C80.8727 245.961 82.0911 245.133 82.3696 243.921C82.5994 242.912 82.1399 241.847 81.4158 241.109C80.6917 240.371 79.7379 239.911 78.7841 239.514C72.9358 237.078 66.6559 237.015 60.4943 238.498" fill="#5245A8"/>
<path d="M56.6719 242.681C57.9738 243.057 58.4194 243.726 59.4498 244.603C62.9448 247.583 67.1361 249.734 71.5989 250.841C72.0653 250.96 72.6711 251.001 72.9008 250.584C73.1027 250.215 72.8451 249.776 72.5875 249.449C70.7216 247.109 68.0551 245.515 65.2563 244.471C62.4505 243.426 60.0277 242.166 56.6788 242.438" fill="#5245A8"/>
<path d="M52.916 218.328C57.5877 222.694 64.1739 224.928 70.5374 224.323C70.8298 224.295 71.1431 224.246 71.3381 224.037C71.7836 223.557 71.2475 222.812 70.7323 222.408C65.5594 218.37 59.2795 216.692 52.916 218.328Z" fill="#5245A8"/>
<path d="M57.3691 216.699C63.5446 212.069 72.0177 210.67 79.3628 213.072C76.5918 215.801 72.7487 217.27 68.8847 217.674C65.0137 218.077 61.1427 217.646 57.3691 216.699Z" fill="#5245A8"/>
<path d="M55.5959 205.511C55.0876 200.338 55.4148 196.258 55.0598 191.057C55.0319 190.639 54.9414 190.145 54.5515 189.992C54.0085 189.783 53.5629 190.451 53.3819 191.001C51.8432 195.791 52.6857 201.285 55.5889 205.392" fill="#5245A8"/>
<path d="M55.2246 206.081C58.7266 203.916 61.3583 201.082 63.7951 197.755C65.4869 195.436 66.9142 192.665 66.5313 189.825C64.1571 189.776 61.8944 191.085 60.3488 192.895C58.8032 194.698 57.8842 196.961 57.2019 199.231C56.5057 201.507 56.0322 203.846 55.2246 206.081Z" fill="#5245A8"/>
<path d="M63.6477 203.742C71.3409 200.895 78.519 196.669 84.7293 191.308C82.2089 190.291 79.3266 190.897 76.8063 191.914C71.0555 194.239 66.356 198.152 63.5293 203.68" fill="#5245A8"/>
<path d="M57.5977 208.915C61.4895 209.34 65.4441 209.618 69.3081 208.971C73.1025 208.337 76.6881 206.834 80.2388 205.337C80.5312 205.211 80.8515 205.065 80.9838 204.773C81.123 204.452 80.9768 204.07 80.7192 203.84C80.4616 203.61 80.1204 203.499 79.7863 203.401C75.9292 202.322 71.7727 202.83 67.9783 204.104C64.17 205.385 61.0648 206.91 57.5977 208.915Z" fill="#5245A8"/>
<path d="M35.3702 218.509C32.7176 213.148 32.8847 206.896 35.1822 201.368C36.7975 203.826 36.9924 206.959 36.7 209.89C36.4076 212.821 35.5164 215.829 35.4538 218.774" fill="#5245A8"/>
<path d="M24.7665 213.155C18.1384 213.03 11.5035 215.856 7.00586 220.723C10.3129 221.245 13.7244 220.389 16.7321 218.92C19.7398 217.451 22.4133 215.39 25.0659 213.343" fill="#5245A8"/>
<path d="M17.6332 210.774C14.3888 210.51 11.2697 210.113 8.15061 211.067C5.03154 212.021 2.19095 214.193 0.923828 217.194C3.95936 217.535 7.03665 216.776 9.81458 215.516C12.5925 214.256 15.1198 212.508 17.6332 210.774Z" fill="#5245A8"/>
<path d="M28.1896 210.879C25.2724 208.964 22.2787 207.022 18.8811 206.228C15.4836 205.434 11.5499 206.019 9.17578 208.581C11.9259 210.196 15.2608 210.384 18.4495 210.384C21.6382 210.384 25.544 210.343 28.5516 211.408" fill="#5245A8"/>
<path d="M28.2042 211.038C23.2193 206.144 21.3256 197.344 23.3307 190.646C27.2504 196.599 29.0119 203.951 28.2042 211.038Z" fill="#5245A8"/>
<path d="M41.9297 197.156C42.8696 194.97 43.531 192.672 44.3734 190.444C45.2159 188.216 46.2671 186.03 47.8615 184.262C49.4558 182.494 51.6629 181.178 54.037 181.059C52.5471 187.799 48.0704 193.821 42.048 197.191" fill="#5245A8"/>
<path d="M39.4479 200.053C37.8883 197.908 36.0921 194.998 33.9825 193.404C31.873 191.802 29.1229 190.835 26.5469 191.447C29.1647 196.133 34.1148 199.433 39.4479 200.053Z" fill="#5245A8"/>
<path d="M39.9449 197.337C38.9214 194.747 37.898 192.122 37.4872 189.365C37.0765 186.608 37.3271 183.663 38.7335 181.261C41.4696 186.434 42.3538 191.99 40.0841 197.392" fill="#5245A8"/>
<path d="M41.9512 181.261C43.5037 176.13 48.2032 172.349 53.2717 170.616C53.9123 170.4 54.5876 170.212 55.256 170.316C55.9243 170.421 56.5788 170.873 56.718 171.535C56.906 172.405 56.1819 173.192 55.5066 173.77C51.5521 177.16 46.9083 179.722 41.9512 181.261Z" fill="#5245A8"/>
<path d="M42.0082 177.07C42.2032 173.763 42.412 170.407 43.4912 167.274C44.5703 164.141 46.6381 161.196 49.6597 159.824C50.1749 163.166 48.6989 166.487 46.9236 169.362C45.1482 172.238 43.0038 174.953 41.9316 178.156" fill="#5245A8"/>
<path d="M41.9213 179.347C40.6403 175.608 40.508 170.86 38.2662 167.601C36.6997 165.325 34.1933 163.772 32.8426 161.363C31.9445 163.619 32.2229 166.209 33.1559 168.444C34.0958 170.679 35.6414 172.607 37.2984 174.376C38.9624 176.144 40.3827 177.474 41.9213 179.347Z" fill="#5245A8"/>
<path d="M41.9551 289.469C41.8577 289.469 41.7672 264.523 41.7602 233.757C41.7532 202.984 41.8298 178.046 41.9273 178.046C42.0248 178.046 42.1153 202.984 42.1222 233.757C42.1292 264.523 42.0526 289.469 41.9551 289.469Z" fill="#5245A8"/>
<path d="M63.747 214.743C63.754 214.764 63.4198 214.889 62.8071 215.098C62.1318 215.327 61.2685 215.62 60.2241 215.968C58.045 216.706 55.0582 217.785 51.8138 219.115C48.6042 220.493 45.5687 221.614 43.842 223.104C42.9787 223.842 42.4844 224.643 42.2407 225.221C41.9901 225.806 41.9483 226.168 41.9135 226.161C41.8996 226.161 41.9065 226.07 41.9274 225.896C41.9553 225.729 41.997 225.478 42.1084 225.172C42.3173 224.559 42.7977 223.703 43.668 222.916C44.5383 222.123 45.7427 221.412 47.1282 220.772C48.5137 220.124 50.0454 219.456 51.6745 218.788C54.9259 217.451 57.9405 216.414 60.1406 215.731C61.2406 215.39 62.1387 215.132 62.7584 214.965C63.3919 214.798 63.7401 214.722 63.747 214.743Z" fill="#5245A8"/>
<path d="M70.8926 197.191C70.8995 197.198 70.809 197.295 70.628 197.469C70.4122 197.671 70.1476 197.915 69.8274 198.221C69.0824 198.897 68.0729 199.816 66.8406 200.937C64.2576 203.234 60.7625 206.346 56.8916 209.792C53.0066 213.246 49.6508 216.553 47.3255 219.038C46.1628 220.278 45.2438 221.308 44.6172 222.025C44.3248 222.359 44.088 222.631 43.8931 222.854C43.726 223.042 43.6355 223.132 43.6216 223.125C43.6146 223.118 43.6842 223.007 43.8374 222.805C43.9906 222.603 44.2064 222.304 44.5058 221.935C45.0976 221.19 45.9887 220.131 47.1305 218.864C49.4141 216.33 52.749 212.988 56.6409 209.521C60.5398 206.075 64.0835 202.976 66.6595 200.742C67.9267 199.655 68.964 198.764 69.7229 198.11C70.0641 197.824 70.3426 197.595 70.5654 197.407C70.7742 197.26 70.8856 197.184 70.8926 197.191Z" fill="#5245A8"/>
<path d="M52.7044 213.308C52.6 213.26 53.4145 211.394 54.2222 209.02C55.0367 206.653 55.4197 204.654 55.5241 204.668C55.6216 204.675 55.3918 206.736 54.5633 209.131C54.1595 210.329 53.707 211.38 53.3588 212.132C53.0038 212.884 52.7531 213.329 52.7044 213.308Z" fill="#5245A8"/>
<path d="M41.9769 228.409C41.956 228.423 41.7471 228.172 41.3781 227.712C40.9743 227.19 40.4591 226.536 39.8464 225.749C38.5584 224.085 36.7761 221.788 34.7849 219.274C32.7867 216.761 30.9557 214.505 29.6259 212.876C28.9993 212.103 28.4771 211.449 28.0594 210.94C27.6904 210.481 27.5024 210.216 27.5163 210.203C27.5372 210.189 27.767 210.418 28.1638 210.85C28.5607 211.282 29.1316 211.922 29.8208 212.716C31.1994 214.31 33.0652 216.538 35.0634 219.058C37.0615 221.579 38.8091 223.897 40.0483 225.603C40.668 226.452 41.1623 227.149 41.4895 227.636C41.8237 228.116 41.9978 228.395 41.9769 228.409Z" fill="#5245A8"/>
<path d="M37.1919 222.268C37.1362 222.331 35.8552 220.82 35.1868 218.522C34.6925 216.9 34.6716 215.417 34.7343 214.742L34.8944 214.756C34.8248 215.048 34.7691 215.194 34.7412 215.194C34.7134 215.187 34.7134 215.027 34.7343 214.735L34.8944 214.749C34.9501 215.424 35.0545 216.851 35.5349 218.425C36.1824 220.646 37.2894 222.212 37.1919 222.268Z" fill="#5245A8"/>
<path d="M31.0241 214.513C30.9754 214.561 30.5646 214.046 29.6247 213.698C28.6918 213.336 27.2854 213.259 25.7468 213.392C24.2011 213.503 22.8226 213.781 21.8409 214.025C20.8523 214.269 20.2536 214.464 20.2327 214.408C20.2187 214.366 20.7897 214.088 21.7713 213.775C22.753 213.468 24.1524 213.148 25.7189 213.03C27.2784 212.897 28.7544 213.016 29.7222 213.461C30.7039 213.893 31.0589 214.499 31.0241 214.513Z" fill="#5245A8"/>
<path d="M29.5587 212.626C29.5308 212.682 28.7441 212.299 27.4143 211.846C26.0915 211.394 24.2047 210.913 22.0673 210.746C19.9369 210.586 17.9944 210.774 16.6159 211.025C15.2374 211.268 14.4019 211.533 14.381 211.47C14.3741 211.449 14.576 211.359 14.9519 211.226C15.3209 211.087 15.8779 210.927 16.5672 210.774C17.9527 210.454 19.923 210.224 22.0952 210.384C24.2674 210.551 26.182 211.08 27.4979 211.602C28.1593 211.86 28.6814 212.104 29.0295 212.299C29.3846 212.494 29.5726 212.605 29.5587 212.626Z" fill="#5245A8"/>
<path d="M41.9249 204.675C41.8274 204.703 41.1312 202.273 40.3653 199.251C39.5995 196.23 39.0564 193.758 39.1539 193.737C39.2514 193.709 39.9476 196.139 40.7134 199.161C41.4793 202.182 42.0223 204.647 41.9249 204.675Z" fill="#5245A8"/>
<path d="M42.0216 204.675C41.9172 204.709 41.4646 203.087 40.288 201.423C39.1462 199.731 37.6841 198.875 37.7398 198.792C37.7607 198.757 38.1645 198.903 38.7215 199.3C39.2854 199.69 39.9817 200.358 40.5804 201.214C41.8058 202.948 42.1121 204.668 42.0216 204.675Z" fill="#5245A8"/>
<path d="M41.9524 276.17C41.9107 276.177 41.841 275.571 41.5556 274.513C41.2771 273.455 40.7549 271.951 39.8916 270.196C38.165 266.674 35.032 262.211 31.0496 257.734C29.0723 255.478 27.1577 253.348 25.5355 251.315C23.9064 249.282 22.5696 247.339 21.5879 245.627C20.6063 243.914 19.9727 242.445 19.5967 241.408C19.4157 240.886 19.2765 240.482 19.2069 240.203C19.1303 239.925 19.0955 239.779 19.1024 239.772C19.1372 239.765 19.3183 240.342 19.729 241.359C20.1398 242.375 20.8082 243.817 21.8107 245.501C22.8063 247.186 24.157 249.094 25.7931 251.113C27.4223 253.132 29.3439 255.249 31.3211 257.504C35.3174 261.988 38.4435 266.513 40.1214 270.092C40.9638 271.881 41.4581 273.413 41.6948 274.485C41.8132 275.028 41.8898 275.446 41.9176 275.738C41.9524 276.017 41.9594 276.163 41.9524 276.17Z" fill="#5245A8"/>
<path d="M61.6483 253.919C61.6623 253.947 61.2863 254.135 60.6179 254.497C59.9565 254.866 59.0166 255.444 57.9375 256.265C56.8583 257.087 55.6539 258.173 54.4216 259.475C53.1892 260.777 51.9152 262.295 50.6202 263.917C48.0233 267.175 45.6004 270.051 44.1453 272.355C43.4073 273.497 42.8712 274.458 42.5231 275.133C42.1681 275.808 41.9801 276.184 41.9522 276.17C41.9383 276.164 41.9731 276.066 42.0497 275.878C42.1263 275.69 42.2307 275.412 42.3978 275.07C42.7111 274.374 43.2193 273.386 43.9365 272.223C45.3498 269.87 47.7517 266.946 50.3417 263.701C51.6436 262.079 52.9316 260.561 54.1848 259.259C55.445 257.957 56.6773 256.885 57.7913 256.078C58.8983 255.27 59.873 254.727 60.5553 254.386C60.8964 254.212 61.1749 254.107 61.3629 254.031C61.5439 253.94 61.6414 253.905 61.6483 253.919Z" fill="#5245A8"/>
<path d="M62.0303 261.138C62.0373 261.194 61.1949 261.292 59.8512 261.459C58.5075 261.633 56.6346 261.856 54.6782 262.475C52.7288 263.109 51.0997 264.083 50.0414 264.905C48.9762 265.733 48.4679 266.416 48.4192 266.374C48.4053 266.36 48.5097 266.172 48.7395 265.873C48.9762 265.566 49.3521 265.156 49.8743 264.71C50.9117 263.812 52.5547 262.788 54.5599 262.134C56.565 261.5 58.4657 261.312 59.8233 261.201C61.1879 261.104 62.0303 261.09 62.0303 261.138Z" fill="#5245A8"/>
<path d="M49.0595 265.581C48.9481 265.518 49.9298 264.014 50.6886 261.995C51.4057 259.955 51.5728 258.166 51.6982 258.187C51.7469 258.194 51.7399 258.639 51.6634 259.357C51.5798 260.074 51.4057 261.069 51.0298 262.114C50.6469 263.158 50.1456 264.035 49.7627 264.641C49.3728 265.254 49.0943 265.602 49.0595 265.581Z" fill="#5245A8"/>
<path d="M68.0299 234.543C68.0369 234.557 67.9115 234.619 67.6818 234.731C67.4103 234.856 67.0691 235.009 66.6583 235.197C66.2058 235.392 65.6627 235.636 65.0501 235.956C64.4304 236.277 63.7133 236.604 62.9684 237.049C62.5854 237.265 62.1886 237.488 61.7778 237.725C61.367 237.961 60.9563 238.247 60.5246 238.518C59.6474 239.047 58.7701 239.709 57.8302 240.377C55.9922 241.77 54.0637 243.42 52.2048 245.327C50.3667 247.249 48.7794 249.24 47.4496 251.12C46.816 252.081 46.1894 252.979 45.6881 253.877C45.4305 254.323 45.166 254.74 44.9432 255.158C44.7204 255.576 44.5115 255.987 44.3096 256.369C43.8849 257.135 43.5855 257.866 43.2862 258.493C42.9868 259.12 42.757 259.67 42.583 260.129C42.4089 260.554 42.2627 260.895 42.1513 261.166C42.0469 261.403 41.9912 261.528 41.9773 261.522C41.9633 261.515 42.0051 261.389 42.0817 261.139C42.1792 260.86 42.2975 260.505 42.4507 260.073C42.6108 259.607 42.8127 259.043 43.1051 258.409C43.3836 257.769 43.676 257.031 44.0868 256.251C44.2818 255.861 44.4906 255.45 44.7065 255.019C44.9223 254.594 45.1868 254.169 45.4445 253.717C45.9388 252.812 46.5584 251.893 47.192 250.925C48.5148 249.017 50.1022 247.012 51.9611 245.07C53.8339 243.148 55.7903 241.491 57.6492 240.106C58.603 239.437 59.4942 238.79 60.3854 238.261C60.824 237.989 61.2417 237.718 61.6595 237.481C62.0772 237.251 62.481 237.028 62.8709 236.82C63.6298 236.381 64.3608 236.068 64.9944 235.768C65.621 235.462 66.1779 235.232 66.6374 235.058C67.0621 234.891 67.4102 234.759 67.6887 234.654C67.8976 234.571 68.0299 234.529 68.0299 234.543Z" fill="#5245A8"/>
<path d="M52.4436 244.986C52.4088 244.979 52.5829 244.373 53.3 243.711C53.9962 243.05 55.2703 242.43 56.7532 242.389C58.2292 242.347 59.5103 242.765 60.3875 243.099C61.2648 243.447 61.78 243.725 61.7591 243.767C61.7382 243.816 61.1882 243.621 60.304 243.342C59.4198 243.071 58.1666 242.716 56.7672 242.751C55.3747 242.792 54.1633 243.329 53.4671 243.906C52.75 244.477 52.4993 245.02 52.4436 244.986Z" fill="#5245A8"/>
<path d="M50.1032 247.388C50.0058 247.332 50.883 246.044 51.0849 244.199C51.3147 242.354 50.7577 240.899 50.8621 240.871C50.9039 240.857 51.0988 241.192 51.2659 241.797C51.433 242.403 51.5514 243.28 51.44 244.241C51.3286 245.202 51.0153 246.03 50.7089 246.58C50.4096 247.13 50.138 247.416 50.1032 247.388Z" fill="#5245A8"/>
<path d="M24.7207 278.742C25.2568 288.273 28.1322 297.971 32.5462 307.774H51.762C55.9741 298.069 58.6476 288.391 59.128 278.742H24.7207Z" fill="#8F88BD"/>
<path d="M56.0194 295.169C56.0194 295.267 49.6908 295.35 41.8931 295.35C34.0884 295.35 27.7598 295.267 27.7598 295.169C27.7598 295.072 34.0815 294.988 41.8931 294.988C49.6908 294.988 56.0194 295.065 56.0194 295.169Z" fill="#D3D3FF"/>
<path d="M55.585 298.623C55.585 298.721 49.6532 298.804 42.3429 298.804C35.0256 298.804 29.0938 298.721 29.0938 298.623C29.0938 298.526 35.0256 298.442 42.3429 298.442C49.6532 298.442 55.585 298.519 55.585 298.623Z" fill="#D3D3FF"/>
<path d="M32.8666 286.001C32.964 286.001 33.0476 287.985 33.0476 290.429C33.0476 292.873 32.964 294.857 32.8666 294.857C32.7691 294.857 32.6855 292.873 32.6855 290.429C32.6855 287.985 32.7691 286.001 32.8666 286.001Z" fill="#D3D3FF"/>
<path d="M43.1478 286C43.2453 286 43.3288 288.054 43.3288 290.581C43.3288 293.115 43.2453 295.162 43.1478 295.162C43.0503 295.162 42.9668 293.108 42.9668 290.581C42.9668 288.054 43.0434 286 43.1478 286Z" fill="#D3D3FF"/>
<path d="M52.8197 285.924C52.9172 285.924 53.0007 288.02 53.0007 290.596C53.0007 293.179 52.9172 295.267 52.8197 295.267C52.7222 295.267 52.6387 293.172 52.6387 290.596C52.6387 288.013 52.7222 285.924 52.8197 285.924Z" fill="#D3D3FF"/>
<path d="M58.5191 286.001C58.5191 286.099 51.0973 286.182 41.949 286.182C32.7937 286.182 25.3789 286.099 25.3789 286.001C25.3789 285.904 32.8006 285.82 41.949 285.82C51.1043 285.82 58.5191 285.904 58.5191 286.001Z" fill="#D3D3FF"/>
<path d="M430.769 19.7101C430.769 8.64021 420.765 -0.0904168 409.305 2.06091C402.099 3.41158 396.355 9.30162 395.088 16.5214C394.301 21.0399 395.234 25.2869 397.288 28.7889H397.281L397.33 28.8585C398.019 30.0212 398.883 30.8497 399.753 32.0681L410.189 45.895C411.491 47.6147 414.074 47.6147 415.369 45.895L425.631 32.2978C425.631 32.2978 427.546 30.0142 428.242 28.8376L428.277 28.7889H428.27C429.857 26.1293 430.769 23.0311 430.769 19.7101ZM412.793 27.5357C408.421 27.5357 404.884 23.9919 404.884 19.6266C404.884 15.2543 408.428 11.7175 412.793 11.7175C417.165 11.7175 420.702 15.2613 420.702 19.6266C420.702 23.9989 417.165 27.5357 412.793 27.5357Z" fill="#D3D3FF"/>
<path d="M68.9781 76.7593L0.414062 88.8306L12.0918 155.159L80.6558 143.088L68.9781 76.7593Z" fill="#D3D3FF"/>
<path d="M16.4121 148.539L29.3688 111.068L48.7168 130.151L56.1037 116.909L74.3378 138.339L16.4121 148.539Z" fill="#FFFCFC"/>
<path d="M50.3253 100.535C50.8057 103.257 48.9885 105.861 46.2593 106.334C43.5371 106.814 40.9402 104.997 40.4598 102.268C39.9794 99.5459 41.7966 96.942 44.5257 96.4686C47.248 95.9882 49.8449 97.8053 50.3253 100.535Z" fill="#FFFCFC"/>
<g opacity="0.3">
<path d="M74.3705 138.521C74.3636 138.514 74.3427 138.423 74.3079 138.249C74.2661 138.054 74.2174 137.797 74.1547 137.477C74.0224 136.773 73.8344 135.778 73.5977 134.497C73.1173 131.872 72.4211 128.071 71.5439 123.246C69.8033 113.561 67.3248 99.7761 64.3519 83.2199L64.6791 83.4497C47.9071 86.4156 28.023 89.9315 6.76737 93.6911C6.69775 93.7747 7.26865 92.9671 7.03193 93.3152V93.3291L7.0389 93.3569L7.05282 93.4196L7.0737 93.538L7.11548 93.7747L7.19902 94.2481L7.36612 95.195L7.7003 97.0817C7.9231 98.3349 8.13893 99.5812 8.36172 100.827C8.80034 103.313 9.232 105.778 9.65669 108.214C10.513 113.088 11.3485 117.864 12.1631 122.508C13.7853 131.795 15.3239 140.582 16.7373 148.665L16.4031 148.428C33.7042 145.441 48.1508 142.949 58.3087 141.201C63.3772 140.345 67.3735 139.663 70.1375 139.196C71.4882 138.973 72.5325 138.799 73.2774 138.681C73.6186 138.625 73.8832 138.584 74.092 138.556C74.2661 138.528 74.3636 138.521 74.3705 138.521C74.3775 138.528 74.2939 138.549 74.1199 138.584C73.918 138.625 73.6673 138.674 73.3401 138.737C72.616 138.869 71.5926 139.064 70.2698 139.315C67.5267 139.816 63.5652 140.54 58.5315 141.459C48.3388 143.29 33.8434 145.894 16.4936 149.013L16.2081 149.062L16.1594 148.776C14.7252 140.7 13.1726 131.921 11.5226 122.633C10.701 117.989 9.85859 113.213 8.99528 108.34C8.56362 105.903 8.13196 103.438 7.69334 100.953C7.47055 99.7065 7.25472 98.4603 7.03193 97.2071L6.69775 95.3203L6.53065 94.3734L6.44711 93.9L6.40533 93.6633L6.38445 93.5449L6.37052 93.4823L6.36356 93.4544V93.4405C6.11988 93.7816 6.69078 92.9601 6.63509 93.0436C27.8977 89.3189 47.7818 85.8308 64.5608 82.8927L64.8392 82.844L64.888 83.1225C67.7564 99.7691 70.1514 113.638 71.8293 123.378C72.6439 128.189 73.2844 131.976 73.73 134.594C73.9389 135.854 74.099 136.836 74.2104 137.532C74.2591 137.846 74.2939 138.089 74.3218 138.277C74.3635 138.444 74.3775 138.528 74.3705 138.521Z" fill="#B2B2DC"/>
</g>
<path d="M5.36794 18.2627L0.199219 44.8706L39.6771 52.5394L44.8458 25.9315L5.36794 18.2627Z" fill="#D3D3FF"/>
<path d="M44.908 26.2757C44.915 26.2896 44.7618 26.3871 44.4694 26.5611C44.1422 26.7491 43.7175 26.9997 43.1814 27.313C42.0187 27.9675 40.4034 28.8865 38.4123 30.0144C34.3394 32.2841 28.7557 35.3892 22.5802 38.8216L22.4479 38.8912L22.3504 38.7798C22.2738 38.6963 22.1972 38.5988 22.1137 38.5013C17.4908 33.036 13.3065 28.0998 10.2501 24.4794C8.76712 22.6971 7.5557 21.242 6.68542 20.2046C6.28857 19.7172 5.96831 19.3274 5.7316 19.028C5.51577 18.7565 5.41133 18.6103 5.4183 18.6033C5.42526 18.5963 5.55754 18.7286 5.78729 18.9792C6.03793 19.2647 6.37908 19.6407 6.79682 20.1071C7.68798 21.1306 8.92725 22.5578 10.445 24.3053C13.5223 27.9048 17.7345 32.8201 22.3852 38.2576C22.4688 38.3551 22.5454 38.4456 22.6219 38.5361L22.3922 38.4944C28.5886 35.0898 34.1862 32.0195 38.28 29.7776C40.2921 28.6915 41.9282 27.8073 43.1048 27.1807C43.6548 26.8953 44.0934 26.6655 44.4207 26.4915C44.7409 26.3453 44.901 26.2687 44.908 26.2757Z" fill="#FFFCFC"/>
<path d="M0.252742 45.2199C0.190082 45.1434 3.86613 42.073 8.46816 38.3622C13.0702 34.6513 16.8437 31.7063 16.9133 31.7898C16.976 31.8664 13.2999 34.9367 8.69791 38.6476C4.09589 42.3515 0.315402 45.2965 0.252742 45.2199Z" fill="#FFFCFC"/>
<path d="M30.0985 34.0034C30.189 33.9546 32.417 38.1459 35.0765 43.3606C37.7361 48.5753 39.8248 52.8431 39.7342 52.8849C39.6437 52.9336 37.4158 48.7424 34.7563 43.5277C32.0967 38.313 30.008 34.0451 30.0985 34.0034Z" fill="#FFFCFC"/>
<path d="M429.192 142.712L390.489 129.171C387.815 128.238 386.402 125.307 387.342 122.633L406.084 69.0589C407.017 66.3854 409.948 64.9721 412.622 65.912L437.17 74.5034L449.319 100.737L435.729 139.565C434.789 142.239 431.865 143.652 429.192 142.712Z" fill="#D3D3FF"/>
<path d="M437.17 74.5027L431.892 89.5828C431.022 92.0684 432.331 94.7906 434.816 95.6609L449.312 100.736L437.17 74.5027Z" fill="white"/>
<path d="M431.624 90.9753C431.624 90.9753 430.155 94.5679 433.894 97.2274C434.033 97.3249 434.186 97.4154 434.333 97.4989C436.108 98.5015 447.791 105.074 447.895 104.788C448.006 104.482 449.315 100.736 449.315 100.736L434.82 95.6609C434.813 95.6609 431.234 94.2685 431.624 90.9753Z" fill="white"/>
<path d="M428.853 87.8283C428.783 88.0233 424.724 86.777 419.774 85.0434C414.831 83.3098 410.877 81.7503 410.946 81.5623C411.016 81.3674 415.075 82.6136 420.025 84.3472C424.968 86.0738 428.923 87.6334 428.853 87.8283Z" fill="#B2B2DC"/>
<path d="M437.446 100.403C437.377 100.598 430.728 98.4465 422.589 95.599C414.45 92.7514 407.906 90.2868 407.975 90.0919C408.045 89.8969 414.694 92.0482 422.833 94.8958C430.971 97.7433 437.516 100.208 437.446 100.403Z" fill="#B2B2DC"/>
<path d="M437.606 108.444C437.536 108.639 430.288 106.278 421.419 103.173C412.549 100.068 405.412 97.3947 405.475 97.1997C405.545 97.0048 412.785 99.365 421.662 102.47C430.532 105.582 437.668 108.256 437.606 108.444Z" fill="#B2B2DC"/>
<path d="M435.256 115.162C435.186 115.357 427.939 112.996 419.069 109.891C410.199 106.786 403.063 104.113 403.125 103.918C403.195 103.723 410.436 106.083 419.313 109.188C428.189 112.293 435.326 114.967 435.256 115.162Z" fill="#B2B2DC"/>
<path d="M432.906 121.88C432.837 122.075 425.589 119.715 416.719 116.61C407.849 113.505 400.713 110.831 400.776 110.637C400.845 110.442 408.086 112.802 416.963 115.907C425.84 119.012 432.976 121.686 432.906 121.88Z" fill="#B2B2DC"/>
<path d="M430.565 128.592C430.495 128.787 423.247 126.427 414.377 123.322C405.508 120.217 398.371 117.543 398.434 117.348C398.504 117.153 405.744 119.514 414.621 122.619C423.498 125.731 430.634 128.404 430.565 128.592Z" fill="#B2B2DC"/>
<path d="M417.005 247.875C418.112 247.207 419.289 246.699 420.5 246.358L421.217 242.897L427.059 242.793L427.901 246.225C429.126 246.525 430.317 246.991 431.445 247.618L434.397 245.682L438.602 249.741L436.771 252.763C437.439 253.87 437.947 255.046 438.289 256.258L441.749 256.975L441.853 262.816L438.421 263.659C438.121 264.884 437.655 266.075 437.028 267.203L438.964 270.155L434.905 274.36L431.883 272.529C430.776 273.197 429.6 273.705 428.388 274.046L427.671 277.507L421.83 277.611L420.987 274.179C419.762 273.879 418.572 273.413 417.444 272.786L414.492 274.722L410.287 270.663L412.118 267.641C411.449 266.534 410.941 265.358 410.6 264.146L407.14 263.429L407.035 257.588L410.468 256.745C410.767 255.52 411.233 254.329 411.86 253.201L409.924 250.25L413.983 246.044L417.005 247.875ZM420.117 255.666C417.715 258.159 417.785 262.127 420.27 264.529C422.763 266.931 426.731 266.861 429.133 264.376C431.535 261.883 431.466 257.915 428.98 255.513C426.495 253.104 422.526 253.174 420.117 255.666Z" fill="#D3D3FF"/>
<path d="M321.802 19.4948C323.021 18.7569 324.322 18.1999 325.659 17.817L326.453 13.9947L332.907 13.8833L333.833 17.6707C335.184 18.0049 336.506 18.5201 337.753 19.2094L341.018 17.072L345.662 21.5557L343.643 24.8906C344.381 26.109 344.938 27.4109 345.321 28.7546L349.143 29.5483L349.254 36.0023L345.467 36.9282C345.133 38.2789 344.617 39.6017 343.928 40.841L346.066 44.1063L341.582 48.7501L338.247 46.731C337.029 47.469 335.727 48.026 334.39 48.4089L333.596 52.2312L327.142 52.3426L326.216 48.5551C324.866 48.221 323.543 47.7058 322.297 47.0165L319.031 49.1539L314.387 44.6702L316.406 41.3353C315.668 40.1169 315.111 38.815 314.729 37.4783L310.906 36.6846L310.795 30.2306L314.582 29.3046C314.917 27.9539 315.432 26.6311 316.121 25.3919L313.984 22.1266L318.467 17.4828L321.802 19.4948ZM325.242 28.0932C322.582 30.8433 322.659 35.2295 325.416 37.889C328.166 40.5486 332.552 40.4651 335.211 37.715C337.871 34.9649 337.794 30.5787 335.037 27.9191C332.28 25.2665 327.901 25.3431 325.242 28.0932Z" fill="white"/>
<path d="M434.156 307.89C434.156 307.987 338.725 308.071 221.043 308.071C103.311 308.071 7.9082 307.987 7.9082 307.89C7.9082 307.793 103.318 307.709 221.043 307.709C338.725 307.709 434.156 307.786 434.156 307.89Z" fill="#263238"/>
<path d="M371.322 40.3254H68.4098C63.1881 40.3254 58.9551 44.5585 58.9551 49.7801V263.729C58.9551 268.951 63.1881 273.184 68.4098 273.184H184.665C184.665 273.184 192.059 296.055 169.132 307.884H277.84C277.84 307.884 251.955 299.007 258.611 273.184H371.315C376.537 273.184 380.77 268.951 380.77 263.729V49.7801C380.777 44.5585 376.544 40.3254 371.322 40.3254Z" fill="#393457"/>
<path d="M223.918 250.69C228.04 256.58 221.593 263.027 215.703 258.905C215.508 258.766 215.334 258.592 215.194 258.397C211.087 252.507 217.527 246.067 223.41 250.182C223.605 250.321 223.779 250.495 223.918 250.69Z" fill="#102A54"/>
<path d="M375.56 234.05H64.168V50.999C64.168 47.2672 67.1896 44.2456 70.9213 44.2456H368.807C372.539 44.2456 375.56 47.2672 375.56 50.999V234.05Z" fill="white"/>
<path d="M375.562 60.015H64.1699V50.616C64.1699 47.0932 67.0244 44.2456 70.5404 44.2456H370.327C373.216 44.2456 375.562 46.5849 375.562 49.4812V60.015Z" fill="#B2B2DC"/>
<path d="M317.161 273.219C317.161 273.317 274.058 273.4 220.895 273.4C167.717 273.4 124.621 273.317 124.621 273.219C124.621 273.122 167.717 273.038 220.895 273.038C274.058 273.038 317.161 273.122 317.161 273.219Z" fill="#263238"/>
<path d="M322.763 11.3833H132.883V234.293H322.763V11.3833Z" fill="white"/>
<path d="M322.71 11.4182H296.859V35.7442H322.71V11.4182Z" fill="#D3D3FF"/>
<path d="M308.625 19.3481H306.578V21.402H308.625V19.3481Z" fill="white"/>
<path d="M311.471 19.3481H309.424V21.402H311.471V19.3481Z" fill="white"/>
<path d="M314.313 19.3481H312.266V21.402H314.313V19.3481Z" fill="white"/>
<path d="M308.625 22.4119H306.578V24.4657H308.625V22.4119Z" fill="white"/>
<path d="M311.471 22.4114H309.424V24.4652H311.471V22.4114Z" fill="white"/>
<path d="M314.313 22.4114H312.266V24.4652H314.313V22.4114Z" fill="white"/>
<path d="M308.625 25.4678H306.578V27.5216H308.625V25.4678Z" fill="white"/>
<path d="M311.471 25.4678H309.424V27.5216H311.471V25.4678Z" fill="white"/>
<path d="M314.313 25.4678H312.266V27.5216H314.313V25.4678Z" fill="white"/>
<path d="M322.707 0.153076H132.826V11.4179H322.707V0.153076Z" fill="#D3D3FF"/>
<path d="M139.864 5.78555C139.864 6.81596 139.036 7.65143 138.005 7.65143C136.982 7.65143 136.146 6.81596 136.146 5.78555C136.146 4.75514 136.975 3.91968 138.005 3.91968C139.036 3.92664 139.864 4.75514 139.864 5.78555Z" fill="white"/>
<path d="M145.163 5.78555C145.163 6.81596 144.335 7.65143 143.304 7.65143C142.281 7.65143 141.445 6.81596 141.445 5.78555C141.445 4.75514 142.274 3.91968 143.304 3.91968C144.335 3.92664 145.163 4.75514 145.163 5.78555Z" fill="white"/>
<path d="M150.464 5.78555C150.464 6.81596 149.635 7.65143 148.605 7.65143C147.582 7.65143 146.746 6.81596 146.746 5.78555C146.746 4.75514 147.575 3.91968 148.605 3.91968C149.628 3.92664 150.464 4.75514 150.464 5.78555Z" fill="white"/>
<path d="M155.178 32.0125V38.4804H153.689V35.8277H150.757V38.4804H149.268V32.0125H150.757V34.5606H153.689V32.0125H155.178Z" fill="#263238"/>
<path d="M161.437 36.399H157.691C157.83 37.0187 158.353 37.3946 159.111 37.3946C159.634 37.3946 160.017 37.2345 160.358 36.9142L161.124 37.7427C160.664 38.2719 159.975 38.5434 159.077 38.5434C157.364 38.5434 156.25 37.4642 156.25 35.9813C156.25 34.4914 157.385 33.4192 158.896 33.4192C160.351 33.4192 161.472 34.4009 161.472 35.9952C161.465 36.1205 161.444 36.2807 161.437 36.399ZM157.663 35.5635H160.107C160.003 34.9369 159.536 34.5262 158.889 34.5262C158.234 34.5262 157.768 34.923 157.663 35.5635Z" fill="#263238"/>
<path d="M162.42 31.6228H163.854V38.4806H162.42V31.6228Z" fill="#263238"/>
<path d="M165.199 31.6228H166.633V38.4806H165.199V31.6228Z" fill="#263238"/>
<path d="M167.6 35.995C167.6 34.4981 168.748 33.4329 170.329 33.4329C171.902 33.4329 173.044 34.4981 173.044 35.995C173.044 37.4918 171.902 38.5571 170.329 38.5571C168.748 38.5571 167.6 37.4918 167.6 35.995ZM171.589 35.995C171.589 35.1386 171.046 34.6164 170.329 34.6164C169.612 34.6164 169.055 35.1316 169.055 35.995C169.055 36.8513 169.605 37.3735 170.329 37.3735C171.046 37.3735 171.589 36.8513 171.589 35.995Z" fill="#263238"/>
<path d="M173.787 37.7145C173.787 37.2411 174.156 36.893 174.671 36.893C175.187 36.893 175.555 37.2411 175.555 37.7145C175.555 38.174 175.187 38.5569 174.671 38.5569C174.156 38.5569 173.787 38.174 173.787 37.7145ZM173.815 32.0125H175.528L175.242 36.2385H174.1L173.815 32.0125Z" fill="#263238"/>
<path d="M181.495 45.5472C181.495 45.6447 174.227 45.7282 165.259 45.7282C156.292 45.7282 149.023 45.6447 149.023 45.5472C149.023 45.4498 156.292 45.3662 165.259 45.3662C174.227 45.3662 181.495 45.4498 181.495 45.5472Z" fill="#263238"/>
<path d="M210.416 51.0333C210.416 51.1308 196.673 51.2143 179.72 51.2143C162.76 51.2143 149.023 51.1308 149.023 51.0333C149.023 50.9358 162.767 50.8523 179.72 50.8523C196.673 50.8523 210.416 50.9358 210.416 51.0333Z" fill="#263238"/>
<path d="M220.668 57.1732C220.668 57.2707 204.697 57.3542 185.001 57.3542C165.297 57.3542 149.326 57.2707 149.326 57.1732C149.326 57.0757 165.297 56.9922 185.001 56.9922C204.697 56.9922 220.668 57.0688 220.668 57.1732Z" fill="#B2B2DC"/>
<path d="M220.668 61.2814C220.668 61.3788 204.697 61.4624 185.001 61.4624C165.297 61.4624 149.326 61.3788 149.326 61.2814C149.326 61.1839 165.297 61.1003 185.001 61.1003C204.697 61.1003 220.668 61.1839 220.668 61.2814Z" fill="#B2B2DC"/>
<path d="M188.946 77.2255C186.224 77.2255 184.01 75.0115 184.01 72.2753C184.01 69.5392 186.217 67.3252 188.946 67.3252C191.668 67.3252 193.882 69.5392 193.882 72.2753C193.882 75.0045 191.668 77.2255 188.946 77.2255Z" fill="#5245A8"/>
<path d="M187.727 71.168H186.703V74.475H187.727V71.168Z" fill="white"/>
<path d="M187.213 70.7363C187.547 70.7363 187.819 70.4648 187.819 70.1237C187.819 69.7895 187.547 69.511 187.213 69.511C186.879 69.511 186.607 69.7825 186.607 70.1237C186.607 70.4648 186.879 70.7363 187.213 70.7363Z" fill="white"/>
<path d="M189.364 72.7414C189.364 72.2749 189.58 71.9964 189.984 71.9964C190.36 71.9964 190.541 72.261 190.541 72.7414C190.541 73.2148 190.541 74.475 190.541 74.475H191.558C191.558 74.475 191.558 73.2635 191.558 72.3793C191.558 71.4951 191.056 71.0635 190.36 71.0635C189.657 71.0635 189.364 71.6135 189.364 71.6135V71.1679H188.383V74.475H189.364C189.364 74.4819 189.364 73.2496 189.364 72.7414Z" fill="white"/>
<path d="M165.498 77.2604C162.747 77.2604 160.52 75.0256 160.52 72.2685C160.52 69.5115 162.747 67.2766 165.498 67.2766C168.248 67.2766 170.476 69.5115 170.476 72.2685C170.469 75.0325 168.248 77.2604 165.498 77.2604Z" fill="#5245A8"/>
<path d="M166.613 72.1431H164.601V72.7209H165.959C165.798 73.4241 165.304 73.8558 164.643 73.8558C163.772 73.8558 163.069 73.1456 163.069 72.2754C163.069 71.4051 163.772 70.6949 164.643 70.6949C165.053 70.6949 165.436 70.8551 165.715 71.1196L166.16 70.7367C165.771 70.3538 165.234 70.1101 164.643 70.1101C163.452 70.1101 162.484 71.0779 162.484 72.2754C162.484 73.4729 163.452 74.4406 164.643 74.4406C165.791 74.4406 166.62 73.5634 166.62 72.3659L166.613 72.1431Z" fill="white"/>
<path d="M169.502 72.1712H168.673V71.3357H168.144V72.1712H167.309V72.7003H168.144V73.5288H168.673V72.7003H169.502V72.1712Z" fill="white"/>
<path d="M177.396 77.1908C174.687 77.1908 172.494 74.9907 172.494 72.2754C172.494 69.5602 174.687 67.3601 177.396 67.3601C180.104 67.3601 182.297 69.5602 182.297 72.2754C182.297 74.9907 180.104 77.1908 177.396 77.1908Z" fill="#5245A8"/>
<path d="M177.393 70.0675C178.11 70.0675 178.194 70.0675 178.479 70.0815C178.744 70.0954 178.883 70.1372 178.981 70.172C179.106 70.2207 179.197 70.2764 179.287 70.3739C179.385 70.4714 179.44 70.5549 179.489 70.6802C179.524 70.7777 179.573 70.9169 179.579 71.1815C179.593 71.467 179.593 71.5505 179.593 72.2676C179.593 72.9847 179.593 73.0752 179.579 73.3537C179.566 73.6183 179.524 73.7575 179.489 73.855C179.44 73.9803 179.385 74.0708 179.287 74.1613C179.197 74.2588 179.106 74.3145 178.981 74.3632C178.883 74.3981 178.744 74.4468 178.479 74.4537C178.194 74.4677 178.11 74.4677 177.393 74.4677C176.676 74.4677 176.593 74.4677 176.307 74.4537C176.043 74.4398 175.903 74.3981 175.806 74.3632C175.681 74.3145 175.59 74.2588 175.5 74.1613C175.409 74.0639 175.346 73.9803 175.298 73.855C175.263 73.7575 175.214 73.6183 175.207 73.3537C175.193 73.0683 175.193 72.9847 175.193 72.2676C175.193 71.5505 175.193 71.46 175.207 71.1815C175.221 70.9169 175.263 70.7777 175.298 70.6802C175.346 70.5549 175.402 70.4644 175.5 70.3739C175.597 70.2764 175.681 70.2207 175.806 70.172C175.903 70.1372 176.043 70.0884 176.307 70.0815C176.593 70.0745 176.676 70.0675 177.393 70.0675ZM177.393 69.5872C176.662 69.5872 176.572 69.5872 176.286 69.6011C176.001 69.615 175.806 69.6568 175.632 69.7264C175.458 69.796 175.305 69.8865 175.158 70.0397C175.012 70.1929 174.915 70.3391 174.852 70.5201C174.783 70.6941 174.741 70.8891 174.727 71.1745C174.713 71.46 174.713 71.5505 174.713 72.2885C174.713 73.0195 174.713 73.11 174.727 73.4025C174.741 73.6879 174.783 73.8828 174.852 74.0569C174.922 74.231 175.012 74.3841 175.158 74.5373C175.305 74.6905 175.458 74.781 175.632 74.8506C175.806 74.9202 176.001 74.962 176.286 74.9759C176.572 74.9898 176.662 74.9898 177.393 74.9898C178.124 74.9898 178.215 74.9898 178.5 74.9759C178.786 74.962 178.981 74.9202 179.155 74.8506C179.329 74.781 179.482 74.6905 179.628 74.5373C179.774 74.3841 179.872 74.2379 179.942 74.0569C180.011 73.8828 180.053 73.6879 180.067 73.4025C180.081 73.117 180.081 73.0265 180.081 72.2885C180.081 71.5575 180.081 71.467 180.067 71.1745C180.053 70.8891 180.011 70.6941 179.942 70.5201C179.872 70.346 179.781 70.1929 179.628 70.0397C179.482 69.8865 179.329 69.796 179.155 69.7264C178.981 69.6568 178.786 69.615 178.5 69.6011C178.215 69.5872 178.124 69.5872 177.393 69.5872Z" fill="white"/>
<path d="M177.392 70.8965C176.633 70.8965 176.014 71.5161 176.014 72.282C176.014 73.0478 176.633 73.6675 177.392 73.6675C178.151 73.6675 178.771 73.0478 178.771 72.282C178.771 71.5161 178.158 70.8965 177.392 70.8965ZM177.392 73.1801C176.898 73.1801 176.494 72.7763 176.494 72.282C176.494 71.7877 176.898 71.3838 177.392 71.3838C177.887 71.3838 178.29 71.7877 178.29 72.282C178.29 72.7763 177.887 73.1801 177.392 73.1801Z" fill="white"/>
<path d="M179.156 70.841C179.156 71.022 179.01 71.1613 178.836 71.1613C178.662 71.1613 178.516 71.0151 178.516 70.841C178.516 70.66 178.662 70.5208 178.836 70.5208C179.01 70.5208 179.156 70.66 179.156 70.841Z" fill="white"/>
<path d="M153.769 77.2599C151.047 77.2599 148.84 75.0459 148.84 72.3167C148.84 69.5875 151.047 67.3735 153.769 67.3735C156.491 67.3735 158.698 69.5875 158.698 72.3167C158.705 75.0459 156.491 77.2599 153.769 77.2599Z" fill="#5245A8"/>
<path d="M153.017 75.3033H154.215V72.2887H155.05L155.141 71.2791H154.215C154.215 71.2791 154.215 70.9032 154.215 70.7013C154.215 70.4646 154.263 70.3671 154.493 70.3671C154.681 70.3671 155.141 70.3671 155.141 70.3671V69.3228C155.141 69.3228 154.458 69.3228 154.312 69.3228C153.421 69.3228 153.017 69.7196 153.017 70.4715C153.017 71.1329 153.017 71.2791 153.017 71.2791H152.391V72.3026H153.017V75.3033Z" fill="white"/>
<path d="M201.528 83.9503C201.528 84.0478 189.044 84.1313 173.658 84.1313C158.258 84.1313 145.781 84.0478 145.781 83.9503C145.781 83.8528 158.258 83.7693 173.658 83.7693C189.051 83.7693 201.528 83.8459 201.528 83.9503Z" fill="#263238"/>
<path d="M314.277 102.184H144.1V233.965H314.277V102.184Z" fill="#F5F5F5"/>
<path d="M197.841 117.849C197.841 117.947 192.668 118.03 186.284 118.03C179.899 118.03 174.727 117.947 174.727 117.849C174.727 117.752 179.899 117.668 186.284 117.668C192.661 117.668 197.841 117.745 197.841 117.849Z" fill="#5245A8"/>
<path d="M280.732 117.849C280.732 117.947 275.559 118.03 269.174 118.03C262.79 118.03 257.617 117.947 257.617 117.849C257.617 117.752 262.79 117.668 269.174 117.668C275.559 117.668 280.732 117.745 280.732 117.849Z" fill="#5245A8"/>
<path d="M280.732 144.494C280.732 144.591 275.559 144.675 269.174 144.675C262.79 144.675 257.617 144.591 257.617 144.494C257.617 144.396 262.79 144.313 269.174 144.313C275.559 144.313 280.732 144.396 280.732 144.494Z" fill="#5245A8"/>
<path d="M205.714 126.392C205.714 126.49 198.988 126.573 190.703 126.573C182.411 126.573 175.686 126.49 175.686 126.392C175.686 126.295 182.404 126.211 190.703 126.211C198.988 126.211 205.714 126.295 205.714 126.392Z" fill="#455A64"/>
<path d="M204.788 142.147C204.788 142.245 198.062 142.328 189.777 142.328C181.485 142.328 174.76 142.245 174.76 142.147C174.76 142.05 181.478 141.966 189.777 141.966C198.062 141.966 204.788 142.05 204.788 142.147Z" fill="#263238"/>
<path d="M173.445 126.392C173.445 126.775 173.132 127.088 172.756 127.088C172.373 127.088 172.066 126.775 172.066 126.392C172.066 126.009 172.38 125.696 172.756 125.696C173.139 125.696 173.445 126.009 173.445 126.392Z" fill="#263238"/>
<path d="M173.445 142.147C173.445 142.53 173.132 142.844 172.756 142.844C172.373 142.844 172.066 142.53 172.066 142.147C172.066 141.764 172.38 141.451 172.756 141.451C173.139 141.458 173.445 141.764 173.445 142.147Z" fill="#263238"/>
<path d="M173.406 155.474C173.406 155.856 173.093 156.17 172.717 156.17C172.334 156.17 172.027 155.856 172.027 155.474C172.027 155.091 172.334 154.777 172.717 154.777C173.093 154.777 173.406 155.091 173.406 155.474Z" fill="#263238"/>
<path d="M172.712 140.254C172.615 140.254 172.531 137.525 172.531 134.155C172.531 130.785 172.615 128.056 172.712 128.056C172.81 128.056 172.893 130.785 172.893 134.155C172.893 137.525 172.817 140.254 172.712 140.254Z" fill="#263238"/>
<path d="M172.712 152.932C172.615 152.932 172.531 151.045 172.531 148.713C172.531 146.38 172.615 144.494 172.712 144.494C172.81 144.494 172.893 146.38 172.893 148.713C172.893 151.045 172.817 152.932 172.712 152.932Z" fill="#263238"/>
<path d="M188.099 128.947C188.099 129.045 185.432 129.128 182.139 129.128C178.846 129.128 176.18 129.045 176.18 128.947C176.18 128.85 178.846 128.766 182.139 128.766C185.432 128.766 188.099 128.843 188.099 128.947Z" fill="#455A64"/>
<path d="M205.47 133.814C205.47 133.912 198.967 133.995 190.954 133.995C182.933 133.995 176.438 133.912 176.438 133.814C176.438 133.717 182.933 133.633 190.954 133.633C198.967 133.633 205.47 133.71 205.47 133.814Z" fill="#B2B2DC"/>
<path d="M197.348 137.866C197.348 137.964 192.669 138.047 186.891 138.047C181.112 138.047 176.434 137.964 176.434 137.866C176.434 137.769 181.112 137.685 186.891 137.685C192.669 137.685 197.348 137.762 197.348 137.866Z" fill="#B2B2DC"/>
<path d="M205.212 135.777C205.212 135.875 198.709 135.958 190.696 135.958C182.675 135.958 176.18 135.875 176.18 135.777C176.18 135.68 182.675 135.596 190.696 135.596C198.716 135.596 205.212 135.673 205.212 135.777Z" fill="#B2B2DC"/>
<path d="M205.47 146.541C205.47 146.639 198.967 146.722 190.954 146.722C182.933 146.722 176.438 146.639 176.438 146.541C176.438 146.444 182.933 146.36 190.954 146.36C198.967 146.36 205.47 146.437 205.47 146.541Z" fill="#B2B2DC"/>
<path d="M197.348 150.593C197.348 150.69 192.669 150.774 186.891 150.774C181.112 150.774 176.434 150.69 176.434 150.593C176.434 150.495 181.112 150.412 186.891 150.412C192.669 150.412 197.348 150.488 197.348 150.593Z" fill="#B2B2DC"/>
<path d="M205.212 148.504C205.212 148.601 198.709 148.685 190.696 148.685C182.675 148.685 176.18 148.601 176.18 148.504C176.18 148.406 182.675 148.323 190.696 148.323C198.716 148.323 205.212 148.399 205.212 148.504Z" fill="#B2B2DC"/>
<path d="M204.788 155.606C204.788 155.703 198.062 155.787 189.777 155.787C181.485 155.787 174.76 155.703 174.76 155.606C174.76 155.508 181.478 155.425 189.777 155.425C198.062 155.425 204.788 155.508 204.788 155.606Z" fill="#263238"/>
<path d="M205.47 159.999C205.47 160.096 198.967 160.18 190.954 160.18C182.933 160.18 176.438 160.096 176.438 159.999C176.438 159.901 182.933 159.818 190.954 159.818C198.967 159.818 205.47 159.894 205.47 159.999Z" fill="#B2B2DC"/>
<path d="M197.348 164.051C197.348 164.149 192.669 164.232 186.891 164.232C181.112 164.232 176.434 164.149 176.434 164.051C176.434 163.954 181.112 163.87 186.891 163.87C192.669 163.87 197.348 163.947 197.348 164.051Z" fill="#B2B2DC"/>
<path d="M205.212 161.962C205.212 162.06 198.709 162.143 190.696 162.143C182.675 162.143 176.18 162.06 176.18 161.962C176.18 161.865 182.675 161.781 190.696 161.781C198.716 161.781 205.212 161.858 205.212 161.962Z" fill="#B2B2DC"/>
<path d="M197.841 173.102C197.841 173.199 192.668 173.283 186.284 173.283C179.899 173.283 174.727 173.199 174.727 173.102C174.727 173.004 179.899 172.921 186.284 172.921C192.661 172.921 197.841 172.997 197.841 173.102Z" fill="#5245A8"/>
<path d="M205.714 181.644C205.714 181.742 198.988 181.825 190.703 181.825C182.411 181.825 175.686 181.742 175.686 181.644C175.686 181.547 182.404 181.463 190.703 181.463C198.988 181.463 205.714 181.547 205.714 181.644Z" fill="#455A64"/>
<path d="M204.788 197.4C204.788 197.497 198.062 197.581 189.777 197.581C181.485 197.581 174.76 197.497 174.76 197.4C174.76 197.302 181.478 197.219 189.777 197.219C198.062 197.219 204.788 197.302 204.788 197.4Z" fill="#263238"/>
<path d="M172.756 182.34C173.136 182.34 173.445 182.029 173.445 181.644C173.445 181.26 173.136 180.948 172.756 180.948C172.375 180.948 172.066 181.26 172.066 181.644C172.066 182.029 172.375 182.34 172.756 182.34Z" fill="#263238"/>
<path d="M173.445 197.4C173.445 197.783 173.132 198.096 172.756 198.096C172.373 198.096 172.066 197.783 172.066 197.4C172.066 197.017 172.38 196.703 172.756 196.703C173.139 196.71 173.445 197.017 173.445 197.4Z" fill="#263238"/>
<path d="M173.406 210.726C173.406 211.108 173.093 211.422 172.717 211.422C172.334 211.422 172.027 211.108 172.027 210.726C172.027 210.343 172.334 210.029 172.717 210.029C173.093 210.036 173.406 210.343 173.406 210.726Z" fill="#263238"/>
<path d="M172.712 195.506C172.615 195.506 172.531 192.777 172.531 189.407C172.531 186.037 172.615 183.308 172.712 183.308C172.81 183.308 172.893 186.037 172.893 189.407C172.893 192.777 172.817 195.506 172.712 195.506Z" fill="#263238"/>
<path d="M172.712 208.184C172.615 208.184 172.531 206.297 172.531 203.965C172.531 201.633 172.615 199.746 172.712 199.746C172.81 199.746 172.893 201.633 172.893 203.965C172.893 206.297 172.817 208.184 172.712 208.184Z" fill="#263238"/>
<path d="M188.099 184.199C188.099 184.297 185.432 184.38 182.139 184.38C178.846 184.38 176.18 184.297 176.18 184.199C176.18 184.102 178.846 184.018 182.139 184.018C185.432 184.018 188.099 184.095 188.099 184.199Z" fill="#455A64"/>
<path d="M205.47 189.066C205.47 189.163 198.967 189.247 190.954 189.247C182.933 189.247 176.438 189.163 176.438 189.066C176.438 188.968 182.933 188.885 190.954 188.885C198.967 188.885 205.47 188.961 205.47 189.066Z" fill="#B2B2DC"/>
<path d="M197.348 193.118C197.348 193.215 192.669 193.299 186.891 193.299C181.112 193.299 176.434 193.215 176.434 193.118C176.434 193.02 181.112 192.937 186.891 192.937C192.669 192.937 197.348 193.02 197.348 193.118Z" fill="#B2B2DC"/>
<path d="M205.212 191.029C205.212 191.127 198.709 191.21 190.696 191.21C182.675 191.21 176.18 191.127 176.18 191.029C176.18 190.932 182.675 190.848 190.696 190.848C198.716 190.848 205.212 190.925 205.212 191.029Z" fill="#B2B2DC"/>
<path d="M205.47 201.793C205.47 201.89 198.967 201.974 190.954 201.974C182.933 201.974 176.438 201.89 176.438 201.793C176.438 201.695 182.933 201.612 190.954 201.612C198.967 201.612 205.47 201.688 205.47 201.793Z" fill="#B2B2DC"/>
<path d="M197.348 205.845C197.348 205.942 192.669 206.026 186.891 206.026C181.112 206.026 176.434 205.942 176.434 205.845C176.434 205.747 181.112 205.664 186.891 205.664C192.669 205.664 197.348 205.747 197.348 205.845Z" fill="#B2B2DC"/>
<path d="M205.212 203.756C205.212 203.853 198.709 203.937 190.696 203.937C182.675 203.937 176.18 203.853 176.18 203.756C176.18 203.658 182.675 203.575 190.696 203.575C198.716 203.575 205.212 203.651 205.212 203.756Z" fill="#B2B2DC"/>
<path d="M204.788 210.858C204.788 210.955 198.062 211.039 189.777 211.039C181.485 211.039 174.76 210.955 174.76 210.858C174.76 210.76 181.478 210.677 189.777 210.677C198.062 210.677 204.788 210.76 204.788 210.858Z" fill="#263238"/>
<path d="M205.47 215.251C205.47 215.349 198.967 215.432 190.954 215.432C182.933 215.432 176.438 215.349 176.438 215.251C176.438 215.154 182.933 215.07 190.954 215.07C198.967 215.07 205.47 215.147 205.47 215.251Z" fill="#B2B2DC"/>
<path d="M197.348 219.303C197.348 219.401 192.669 219.484 186.891 219.484C181.112 219.484 176.434 219.401 176.434 219.303C176.434 219.206 181.112 219.122 186.891 219.122C192.669 219.122 197.348 219.206 197.348 219.303Z" fill="#B2B2DC"/>
<path d="M205.212 217.214C205.212 217.311 198.709 217.395 190.696 217.395C182.675 217.395 176.18 217.311 176.18 217.214C176.18 217.117 182.675 217.033 190.696 217.033C198.716 217.033 205.212 217.11 205.212 217.214Z" fill="#B2B2DC"/>
<path d="M231.107 233.645C231.009 233.645 230.926 204.397 230.926 168.332C230.926 132.254 231.009 103.013 231.107 103.013C231.204 103.013 231.288 132.254 231.288 168.332C231.288 204.397 231.204 233.645 231.107 233.645Z" fill="#455A64"/>
<path d="M296.862 125.634C296.862 125.731 287.714 125.815 276.428 125.815C265.143 125.815 255.994 125.731 255.994 125.634C255.994 125.536 265.143 125.453 276.428 125.453C287.714 125.453 296.862 125.536 296.862 125.634Z" fill="#455A64"/>
<path d="M297.404 128.947C297.404 129.045 288.325 129.128 277.123 129.128C265.921 129.128 256.842 129.045 256.842 128.947C256.842 128.85 265.921 128.766 277.123 128.766C288.325 128.766 297.404 128.843 297.404 128.947Z" fill="#455A64"/>
<path d="M280.732 195.569C280.732 195.666 275.559 195.75 269.174 195.75C262.79 195.75 257.617 195.666 257.617 195.569C257.617 195.471 262.79 195.388 269.174 195.388C275.559 195.388 280.732 195.471 280.732 195.569Z" fill="#5245A8"/>
<path d="M296.862 203.352C296.862 203.45 287.714 203.533 276.428 203.533C265.143 203.533 255.994 203.45 255.994 203.352C255.994 203.255 265.143 203.171 276.428 203.171C287.714 203.171 296.862 203.255 296.862 203.352Z" fill="#455A64"/>
<path d="M297.405 206.667C297.405 206.764 288.132 206.848 276.7 206.848C265.261 206.848 255.994 206.764 255.994 206.667C255.994 206.569 265.261 206.486 276.7 206.486C288.139 206.486 297.405 206.569 297.405 206.667Z" fill="#455A64"/>
<path d="M293.552 155.536H258.406C257.543 155.536 256.84 154.833 256.84 153.97C256.84 153.106 257.543 152.403 258.406 152.403H293.552C294.415 152.403 295.118 153.106 295.118 153.97C295.118 154.84 294.415 155.536 293.552 155.536Z" fill="#B2B2DC"/>
<path d="M277.306 155.536H258.397C257.533 155.536 256.83 154.833 256.83 153.97C256.83 153.106 257.533 152.403 258.397 152.403H277.306C278.169 152.403 278.872 153.106 278.872 153.97C278.872 154.84 278.176 155.536 277.306 155.536Z" fill="#5245A8"/>
<path d="M293.554 162.498H258.408C257.545 162.498 256.842 161.795 256.842 160.932C256.842 160.069 257.545 159.365 258.408 159.365H293.554C294.417 159.365 295.12 160.069 295.12 160.932C295.12 161.802 294.417 162.498 293.554 162.498Z" fill="#B2B2DC"/>
<path d="M271.163 162.498H258.408C257.545 162.498 256.842 161.795 256.842 160.932C256.842 160.069 257.545 159.365 258.408 159.365H271.163C272.026 159.365 272.73 160.069 272.73 160.932C272.73 161.802 272.026 162.498 271.163 162.498Z" fill="#5245A8"/>
<path d="M293.554 169.46H258.408C257.545 169.46 256.842 168.756 256.842 167.893C256.842 167.03 257.545 166.327 258.408 166.327H293.554C294.417 166.327 295.12 167.03 295.12 167.893C295.12 168.763 294.417 169.46 293.554 169.46Z" fill="#B2B2DC"/>
<path d="M288.464 169.46H258.408C257.545 169.46 256.842 168.756 256.842 167.893C256.842 167.03 257.545 166.327 258.408 166.327H288.464C289.328 166.327 290.031 167.03 290.031 167.893C290.024 168.763 289.328 169.46 288.464 169.46Z" fill="#5245A8"/>
<path d="M293.554 176.43H258.408C257.545 176.43 256.842 175.726 256.842 174.863C256.842 174 257.545 173.297 258.408 173.297H293.554C294.417 173.297 295.12 174 295.12 174.863C295.12 175.726 294.417 176.43 293.554 176.43Z" fill="#B2B2DC"/>
<path d="M284.196 176.43H258.408C257.545 176.43 256.842 175.726 256.842 174.863C256.842 174 257.545 173.297 258.408 173.297H284.196C285.06 173.297 285.763 174 285.763 174.863C285.763 175.726 285.06 176.43 284.196 176.43Z" fill="#5245A8"/>
<path d="M253.419 154.638C253.419 154.736 251.936 154.819 250.112 154.819C248.281 154.819 246.805 154.736 246.805 154.638C246.805 154.541 248.288 154.457 250.112 154.457C251.936 154.457 253.419 154.541 253.419 154.638Z" fill="#455A64"/>
<path d="M253.419 160.939C253.419 161.036 251.936 161.12 250.112 161.12C248.281 161.12 246.805 161.036 246.805 160.939C246.805 160.841 248.288 160.758 250.112 160.758C251.936 160.758 253.419 160.834 253.419 160.939Z" fill="#455A64"/>
<path d="M253.419 167.233C253.419 167.33 251.936 167.414 250.112 167.414C248.281 167.414 246.805 167.33 246.805 167.233C246.805 167.135 248.288 167.052 250.112 167.052C251.936 167.052 253.419 167.135 253.419 167.233Z" fill="#455A64"/>
<path d="M253.419 173.526C253.419 173.624 251.936 173.707 250.112 173.707C248.281 173.707 246.805 173.624 246.805 173.526C246.805 173.429 248.288 173.345 250.112 173.345C251.936 173.345 253.419 173.429 253.419 173.526Z" fill="#455A64"/>
<path d="M158.072 114.131L163.927 111.562L169.24 114.131L163.809 116.916L158.072 114.131Z" fill="#5245A8"/>
<path d="M159.296 115.531L159.213 119.033H167.888V115.649L163.704 117.703L159.296 115.531Z" fill="#5245A8"/>
<path d="M251.414 113.853H242.746V119.36H251.414V113.853Z" fill="#5245A8"/>
<path d="M248.823 119.36H245.342V121.087H248.823V119.36Z" fill="#5245A8"/>
<path d="M250.756 121.024C250.756 121.121 249.022 121.205 246.885 121.205C244.747 121.205 243.014 121.121 243.014 121.024C243.014 120.926 244.747 120.843 246.885 120.843C249.022 120.843 250.756 120.919 250.756 121.024Z" fill="#5245A8"/>
<path d="M164.68 169.489H156.012V174.996H164.68V169.489Z" fill="#5245A8"/>
<path d="M162.087 174.995H158.605V176.722H162.087V174.995Z" fill="#5245A8"/>
<path d="M164.01 176.659C164.01 176.757 162.276 176.84 160.139 176.84C158.001 176.84 156.268 176.757 156.268 176.659C156.268 176.562 158.001 176.478 160.139 176.478C162.276 176.478 164.01 176.555 164.01 176.659Z" fill="#5245A8"/>
<path d="M250.938 146.221L250.144 144.822C250.492 144.251 250.694 143.582 250.694 142.865C250.694 140.804 249.023 139.134 246.962 139.134C244.901 139.134 243.23 140.804 243.23 142.865C243.23 144.926 244.901 146.597 246.962 146.597C247.826 146.597 248.619 146.305 249.246 145.817L250.938 146.221Z" fill="#5245A8"/>
<path d="M248.821 193.549C249.566 193.236 250.088 192.47 250.095 191.572C250.102 190.388 249.204 189.427 248.097 189.42C246.99 189.413 246.085 190.367 246.085 191.551C246.078 192.463 246.614 193.236 247.366 193.549C244.282 194.015 244.421 197.371 244.421 197.371L251.717 197.406C251.717 197.399 251.884 194.008 248.821 193.549Z" fill="#5245A8"/>
<path d="M322.712 0.15317C322.712 1.5665 322.775 95.076 322.872 234.327V234.488H322.712C266.297 234.494 201.479 234.501 132.852 234.508H132.831H132.65V234.327C132.664 147.683 132.671 67.1158 132.678 0.15317V0H132.831C247.318 0.0974711 321.452 0.15317 322.712 0.15317C321.452 0.15317 247.318 0.21583 132.831 0.306339L132.985 0.15317C132.992 67.1158 133.005 147.683 133.012 234.327L132.831 234.146H132.852C201.479 234.153 266.304 234.16 322.712 234.167L322.552 234.327C322.649 95.076 322.712 1.5665 322.712 0.15317Z" fill="#263238"/>
<path d="M402.607 149.305C394.343 153.587 388.007 160.953 383.454 169.071C378.9 177.189 375.962 186.087 373.052 194.929L370.504 240.517C380.119 224.163 387.833 204.933 389.922 186.08C387.791 185.892 385.654 185.697 383.523 185.509C387.812 184.854 391.411 181.749 393.702 178.059C395.993 174.376 397.169 170.122 398.325 165.938C395.721 166.328 393.124 166.711 390.52 167.101C396.633 163.014 401.068 156.49 402.607 149.305Z" fill="#455A64"/>
<path d="M402.607 149.305C394.343 153.587 388.007 160.953 383.454 169.071C378.9 177.189 375.962 186.087 373.052 194.929L370.504 240.517C380.119 224.163 387.833 204.933 389.922 186.08C387.791 185.892 385.654 185.697 383.523 185.509C387.812 184.854 391.411 181.749 393.702 178.059C395.993 174.376 397.169 170.122 398.325 165.938C395.721 166.328 393.124 166.711 390.52 167.101C396.633 163.014 401.068 156.49 402.607 149.305Z" fill="#5245A8"/>
<g opacity="0.3">
<path d="M402.605 149.305C394.341 153.587 388.005 160.953 383.452 169.071C378.898 177.189 375.96 186.087 373.05 194.929L370.502 240.517C380.117 224.163 387.831 204.933 389.92 186.08C387.789 185.892 385.652 185.697 383.521 185.509C387.81 184.854 391.41 181.749 393.7 178.059C395.991 174.376 397.167 170.122 398.323 165.938C395.719 166.328 393.122 166.711 390.518 167.101C396.631 163.014 401.066 156.49 402.605 149.305Z" fill="#241C52"/>
</g>
<path d="M369.084 251.197C369.084 251.197 348.218 226.217 348.455 202.378H356.886C356.886 202.378 347.731 196.356 348.455 192.986C349.179 189.617 349.423 176.848 349.423 176.848L357.13 178.776C357.13 178.776 351.351 175.887 350.627 171.313C349.903 166.739 352.312 145.539 352.312 145.539C352.312 145.539 361.704 155.411 364.593 165.527C367.483 175.643 375.071 187.444 372.843 218.273C370.616 249.095 369.084 251.197 369.084 251.197Z" fill="#5245A8"/>
<path d="M379.66 253.551C379.66 253.551 402.267 238.491 407.293 219.269L400.519 217.424C400.519 217.424 409.201 214.583 409.354 211.715C409.507 208.846 412.111 198.528 412.111 198.528L405.49 198.389C405.49 198.389 410.767 197.331 412.355 193.808C413.935 190.285 416.637 172.719 416.637 172.719C416.637 172.719 406.924 178.602 402.385 186.101C397.846 193.599 389.164 201.431 384.214 226.704C379.256 251.984 379.66 253.551 379.66 253.551Z" fill="#5245A8"/>
<path d="M358.006 167.309C358.013 167.309 358.034 167.393 358.082 167.567C358.124 167.755 358.187 168.013 358.263 168.333C358.417 169.029 358.639 170.025 358.925 171.299C359.21 172.587 359.551 174.167 359.914 175.998C360.282 177.836 360.714 179.925 361.139 182.243C362.03 186.873 362.97 192.408 363.945 198.57C364.885 204.731 365.824 211.526 366.66 218.677C367.474 225.827 368.115 232.657 368.602 238.874C369.062 245.091 369.41 250.703 369.598 255.409C369.716 257.762 369.772 259.9 369.828 261.773C369.89 263.646 369.925 265.261 369.939 266.577C369.953 267.879 369.967 268.895 369.974 269.612C369.974 269.946 369.974 270.204 369.974 270.399C369.974 270.58 369.967 270.67 369.96 270.67C369.953 270.67 369.946 270.58 369.932 270.399C369.925 270.204 369.911 269.939 369.897 269.612C369.876 268.895 369.842 267.879 369.793 266.577C369.758 265.261 369.702 263.646 369.619 261.78C369.542 259.907 369.466 257.776 369.333 255.423C369.111 250.717 368.742 245.112 368.261 238.902C367.753 232.692 367.105 225.869 366.291 218.718C365.455 211.575 364.529 204.787 363.603 198.625C362.65 192.464 361.738 186.929 360.874 182.292C360.47 179.974 360.053 177.878 359.705 176.04C359.357 174.202 359.043 172.615 358.779 171.327C358.521 170.052 358.326 169.05 358.187 168.347C358.124 168.019 358.075 167.762 358.041 167.567C358.013 167.4 358.006 167.309 358.006 167.309Z" fill="#A39DCC"/>
<path d="M366.187 266.486C366.187 266.486 347.089 244.82 341.157 231.717L345.634 229.802C342.39 230.338 339.069 228.946 336.548 226.823C334.035 224.706 332.183 221.921 330.373 219.178L336.27 218.182C330.909 216.679 326.182 213.016 323.383 208.206C330.338 209.347 336.639 213.17 341.826 217.946C346.024 221.817 349.582 226.307 353 230.895C354.664 233.13 356.126 235.518 357.338 238.032C360.554 244.674 366.2 258.535 366.187 266.486Z" fill="#5245A8"/>
<path d="M407.592 185.342C407.599 185.342 407.564 185.419 407.502 185.565C407.425 185.725 407.328 185.934 407.209 186.191C406.931 186.762 406.541 187.57 406.047 188.593C405.023 190.675 403.568 193.697 401.814 197.449C400.052 201.202 398.026 205.7 395.847 210.733C393.689 215.767 391.391 221.337 389.101 227.234C386.824 233.138 384.777 238.805 382.988 243.985C381.212 249.172 379.688 253.864 378.469 257.826C377.244 261.787 376.283 264.997 375.643 267.225C375.322 268.318 375.065 269.181 374.891 269.787C374.807 270.065 374.738 270.281 374.689 270.448C374.64 270.594 374.612 270.671 374.605 270.671C374.598 270.671 374.612 270.587 374.654 270.441C374.696 270.274 374.751 270.051 374.821 269.766C374.981 269.153 375.218 268.29 375.51 267.183C376.109 264.941 377.035 261.718 378.226 257.742C379.416 253.767 380.92 249.06 382.674 243.866C384.45 238.68 386.49 232.998 388.766 227.094C391.057 221.197 393.368 215.621 395.548 210.594C397.741 205.567 399.795 201.077 401.591 197.338C403.38 193.592 404.863 190.585 405.928 188.524C406.45 187.507 406.861 186.714 407.154 186.15C407.293 185.892 407.397 185.69 407.481 185.537C407.55 185.405 407.585 185.335 407.592 185.342Z" fill="#A39DCC"/>
<path d="M367.807 275.774C367.793 275.774 367.765 275.635 367.717 275.378C367.668 275.078 367.605 274.695 367.536 274.229C367.466 273.728 367.369 273.115 367.236 272.412C367.111 271.708 366.986 270.894 366.791 270.017C366.45 268.241 365.962 266.146 365.336 263.841C364.688 261.544 363.901 259.037 362.934 256.461C361.952 253.885 360.894 251.483 359.856 249.332C358.805 247.188 357.789 245.294 356.87 243.734C356.431 242.948 355.985 242.258 355.616 241.646C355.247 241.026 354.913 240.511 354.635 240.086C354.384 239.689 354.175 239.362 354.015 239.104C353.876 238.875 353.806 238.756 353.82 238.749C353.827 238.742 353.918 238.854 354.078 239.063C354.259 239.313 354.482 239.627 354.76 240.009C355.052 240.42 355.408 240.929 355.79 241.541C356.18 242.147 356.64 242.829 357.092 243.609C358.039 245.155 359.084 247.048 360.156 249.186C361.214 251.337 362.286 253.746 363.275 256.336C364.243 258.926 365.029 261.446 365.663 263.758C366.276 266.076 366.735 268.186 367.048 269.968C367.222 270.859 367.327 271.674 367.438 272.384C367.55 273.094 367.626 273.714 367.675 274.215C367.724 274.688 367.758 275.071 367.793 275.378C367.814 275.635 367.821 275.774 367.807 275.774Z" fill="#A39DCC"/>
<path d="M393.007 270.677H351.213V279.206H393.007V270.677Z" fill="#6C6693"/>
<path d="M355.195 279.206L359.714 307.884H384.973L389.185 279.206H355.195Z" fill="#6C6693"/>
<path d="M390.443 279.206C390.443 279.304 382.534 279.387 372.787 279.387C363.033 279.387 355.131 279.304 355.131 279.206C355.131 279.109 363.033 279.025 372.787 279.025C382.534 279.025 390.443 279.102 390.443 279.206Z" fill="#455A64"/>
<path d="M252.037 52.5923C252.037 52.5923 244.302 55.2379 243.342 60.383C242.367 65.6395 241.309 72.6017 241.309 72.6017L253.012 71.9473L252.037 52.5923Z" fill="#5245A8"/>
<path d="M258.583 50.0857L251.342 52.8706L249.831 89.84L248.863 102.184H285.081L280.743 52.5921L269.444 50.2319L258.583 50.0857Z" fill="#5245A8"/>
<path d="M289.96 70.9586C289.96 70.9586 288.143 53.6366 280.742 52.5923L277.623 64.0521V70.9517H289.96V70.9586Z" fill="#5245A8"/>
<path d="M252.481 73.4233C252.481 73.4233 255.106 72.1701 256.338 72.6087C257.571 73.0474 262.744 75.4772 262.744 75.4772L253.004 78.7007L250.602 75.9576L252.481 73.4233Z" fill="#FFBE9D"/>
<g opacity="0.3">
<path d="M284 87.6468C283.394 86.136 281.981 85.0708 280.456 84.4999C278.932 83.929 277.289 83.7967 275.666 83.6644C271.113 83.2954 266.56 82.9264 262.013 82.5505C260.287 82.4112 258.511 82.279 256.868 82.815C253.951 83.7689 251.466 86.6582 249.857 89.269V89.8817C251.25 90.9191 253.178 90.9051 254.863 90.4804C256.548 90.0627 258.135 89.2829 259.834 88.9209C263.03 88.2386 266.33 89.0532 269.491 89.8678C272.38 90.6127 275.27 91.3507 278.166 92.0957C279.725 92.4925 281.494 92.8685 282.851 91.9982C284.209 91.114 284.613 89.1576 284 87.6468Z" fill="black"/>
</g>
<path d="M242.239 72.6089C242.239 72.6089 241.912 85.2871 244.634 87.6264C247.356 89.9657 249.048 89.5828 252.035 89.186C255.021 88.7961 272.162 80.2117 272.162 80.2117L270.345 74.0779L252.55 77.3363L252.452 71.9475L242.239 72.6089Z" fill="#FFBE9D"/>
<path d="M288.536 70.9585C288.536 70.9585 289.316 85.1545 288.536 86.9786C287.756 88.8027 284.902 90.759 281.783 90.2369C278.664 89.7147 261.948 85.1614 261.934 85.1684C261.92 85.1753 267.754 79.0416 267.754 79.0416L279.833 78.784L279.054 70.9724H288.536V70.9585Z" fill="#FFBE9D"/>
<path d="M279.054 72.6084C275.685 70.1926 270.352 74.0844 270.352 74.0844V74.7389L271.688 79.132L279.834 78.777C279.834 78.77 281.22 74.161 279.054 72.6084Z" fill="#FFBE9D"/>
<path d="M279.565 78.7004C279.565 78.7421 278.834 78.7978 277.601 78.8674C276.362 78.9371 274.622 79.0067 272.603 79.0763L272.693 79.0485C271.948 79.5497 271.134 80.0789 270.277 80.615C267.966 82.0561 265.787 83.2258 264.185 84.0195C263.385 84.4163 262.73 84.7227 262.271 84.9176C261.811 85.1126 261.554 85.217 261.54 85.1891C261.526 85.1682 261.769 85.022 262.208 84.7853C262.716 84.5138 263.336 84.1796 264.067 83.7828C265.633 82.9334 267.778 81.7289 270.082 80.2947C270.939 79.7656 271.753 79.2364 272.498 78.7491L272.54 78.7212H272.589C274.615 78.6725 276.355 78.6447 277.595 78.6377C278.834 78.6377 279.565 78.6586 279.565 78.7004Z" fill="#102A54"/>
<path d="M279.055 70.9585C279.104 70.9585 279.194 71.6478 279.306 72.7687C279.417 73.8896 279.535 75.4352 279.654 77.1479C279.689 77.677 279.716 78.1922 279.751 78.6866L279.682 78.5612C280.768 79.3967 281.554 80.2948 282.042 80.9771C282.536 81.6594 282.752 82.112 282.717 82.1329C282.634 82.2025 281.603 80.448 279.466 78.8467L279.403 78.798L279.396 78.7144C279.361 78.2271 279.327 77.7119 279.285 77.1758C279.173 75.4631 279.09 73.9105 279.048 72.7826C279.006 71.6617 279.006 70.9585 279.055 70.9585Z" fill="#102A54"/>
<path d="M264.535 75.1487C264.542 75.1974 263.644 75.4063 262.174 75.7126C260.705 76.012 258.679 76.4089 256.438 76.8196C255.045 77.0633 253.743 77.3 252.588 77.5019L252.685 77.4462C251.85 78.4488 251.146 79.2773 250.645 79.8552C250.144 80.433 249.837 80.7533 249.817 80.7255C249.789 80.7046 250.039 80.3425 250.499 79.7368C250.958 79.1241 251.627 78.2678 252.441 77.2513L252.476 77.2095L252.539 77.1956C253.688 76.9798 254.996 76.7291 256.382 76.4715C258.624 76.0608 260.664 75.7057 262.14 75.469C263.609 75.2183 264.521 75.1 264.535 75.1487Z" fill="#102A54"/>
<path d="M252.46 71.9536C252.557 71.9536 252.662 73.1581 252.689 74.641C252.717 76.1309 252.655 77.3354 252.557 77.3354C252.46 77.3354 252.355 76.1309 252.327 74.641C252.3 73.1581 252.355 71.9536 252.46 71.9536Z" fill="#102A54"/>
<path d="M251.342 61.7749C251.439 61.768 251.78 64.3649 252.093 67.5814C252.407 70.798 252.588 73.4157 252.483 73.4227C252.386 73.4297 252.045 70.8328 251.731 67.6162C251.418 64.3997 251.244 61.7888 251.342 61.7749Z" fill="#263238"/>
<path d="M279.664 60.4732C279.762 60.4801 279.727 63.0283 279.574 66.1683C279.427 69.3082 279.225 71.8564 279.121 71.8494C279.024 71.8425 279.058 69.2943 279.212 66.1543C279.365 63.0144 279.567 60.4662 279.664 60.4732Z" fill="#263238"/>
<path d="M279.67 31.0432C278.82 30.1242 277.783 29.2609 277.49 28.0425C277.219 26.9216 277.616 25.6405 277.024 24.6519C276.3 23.4335 274.483 23.3291 273.612 22.2151C273.188 21.6721 273.042 20.9619 272.624 20.4119C271.914 19.4859 270.584 19.2771 269.428 19.4372C268.272 19.5973 267.172 20.0499 266.01 20.1682C264.415 20.3284 262.751 19.8619 261.234 20.3701C259.556 20.9271 258.574 22.4658 257.516 23.9487L256.137 25.6753C255.852 25.9747 255.545 26.2463 255.204 26.483C254.613 26.8937 253.93 27.1862 253.429 27.7014C252.35 28.8014 252.51 30.8552 253.742 31.7743C252.524 32.2059 251.681 33.5218 251.8 34.8098C251.862 35.5199 252.176 36.1744 252.412 36.8497C252.649 37.525 252.795 38.277 252.538 38.9384C252.273 39.5998 251.459 40.0732 250.832 39.746C251.083 40.658 251.765 41.4448 252.628 41.8138C252.308 42.1688 251.849 42.3916 251.368 42.4264C252.761 45.4341 256.332 46.924 259.639 46.8335C262.946 46.743 266.065 45.3854 269.087 44.0486L277.908 41.4378C278.681 41.2359 278.98 40.2682 278.939 39.4675C278.904 38.6668 278.674 37.8383 278.932 37.0725C279.294 36.0282 280.463 35.4433 280.839 34.4129C281.278 33.2363 280.526 31.9622 279.67 31.0432Z" fill="#263238"/>
<path d="M258.908 39.8747C258.198 37.8835 257.495 35.8714 257.14 33.7827C256.785 31.694 256.785 29.5079 257.46 27.5028C257.565 27.1965 258.456 25.1565 258.776 25.1774C259.006 25.1913 258.47 27.092 258.595 27.287C259.751 29.1459 260.113 31.4156 260.002 33.6017C259.883 35.7878 259.486 37.7651 258.908 39.8747Z" fill="#263238"/>
<path d="M266.722 21.7285L266.235 21.7146C260.944 21.8956 258.138 26.4976 258.458 31.8029L258.591 50.0856C258.611 53.3927 261.215 56.101 264.508 56.2542C267.969 56.4143 270.886 53.699 270.983 50.2249C271.011 49.2641 271.032 48.5888 271.039 48.5888C271.039 48.5888 276.142 47.9204 276.33 42.831C276.421 40.3733 276.198 35.2909 275.94 30.6959C275.669 25.7527 271.652 21.8538 266.722 21.7285Z" fill="#FFBE9D"/>
<path d="M271.036 48.5876C271.036 48.5876 267.826 48.699 264.471 46.4641C264.471 46.4641 265.988 50.2098 271.071 49.8756L271.036 48.5876Z" fill="#102A54"/>
<path d="M273.739 34.8604C273.746 35.2433 273.419 35.5635 273.022 35.5775C272.625 35.5914 272.291 35.2851 272.291 34.9021C272.284 34.5192 272.611 34.199 273.008 34.185C273.405 34.1711 273.739 34.4774 273.739 34.8604Z" fill="#263238"/>
<path d="M274.777 32.7783C274.687 32.8688 274.144 32.451 273.364 32.4302C272.584 32.4023 271.999 32.7922 271.916 32.6947C271.874 32.653 271.971 32.4789 272.222 32.3048C272.473 32.1308 272.897 31.9637 273.385 31.9776C273.872 31.9915 274.276 32.1795 274.506 32.3745C274.742 32.5624 274.819 32.7365 274.777 32.7783Z" fill="#263238"/>
<path d="M266.429 34.8596C266.436 35.2426 266.108 35.5628 265.712 35.5767C265.315 35.5907 264.981 35.2843 264.981 34.9014C264.974 34.5185 265.301 34.1982 265.698 34.1843C266.101 34.1704 266.429 34.4767 266.429 34.8596Z" fill="#263238"/>
<path d="M267.15 32.9038C267.06 32.9943 266.517 32.5765 265.737 32.5556C264.957 32.5278 264.372 32.9177 264.289 32.8202C264.247 32.7784 264.344 32.6044 264.595 32.4303C264.846 32.2563 265.27 32.0892 265.758 32.1031C266.245 32.117 266.649 32.305 266.879 32.5C267.115 32.6879 267.199 32.862 267.15 32.9038Z" fill="#263238"/>
<path d="M269.802 38.988C269.802 38.9463 270.29 38.8697 271.076 38.7931C271.278 38.7792 271.466 38.7444 271.501 38.6051C271.55 38.4589 271.473 38.2431 271.383 38.0064C271.209 37.519 271.021 37.0038 270.833 36.4677C270.067 34.2816 269.517 32.4853 269.607 32.4505C269.698 32.4227 270.387 34.1702 271.153 36.3563C271.334 36.8924 271.515 37.4076 271.682 37.9019C271.752 38.1317 271.877 38.3893 271.766 38.6887C271.71 38.8349 271.557 38.9393 271.432 38.9741C271.306 39.0089 271.188 39.0089 271.09 39.0159C270.297 39.0437 269.802 39.0368 269.802 38.988Z" fill="#263238"/>
<path d="M267.497 39.477C267.623 39.47 267.602 40.3194 268.312 40.946C269.022 41.5726 269.927 41.496 269.927 41.6144C269.934 41.6701 269.725 41.7745 269.342 41.7745C268.966 41.7815 268.423 41.6422 267.992 41.2663C267.56 40.8833 267.379 40.389 267.358 40.0409C267.337 39.6789 267.442 39.47 267.497 39.477Z" fill="#263238"/>
<path d="M267.193 29.7252C267.109 29.934 266.336 29.8157 265.417 29.9062C264.498 29.9758 263.753 30.2265 263.635 30.0315C263.586 29.941 263.718 29.7391 264.018 29.5442C264.317 29.3492 264.798 29.1612 265.348 29.1125C265.898 29.0638 266.399 29.1682 266.733 29.3074C267.067 29.4536 267.227 29.6277 267.193 29.7252Z" fill="#263238"/>
<path d="M274.516 30.1672C274.377 30.3413 273.841 30.1463 273.193 30.1185C272.546 30.0697 271.996 30.209 271.877 30.021C271.821 29.9305 271.912 29.7564 272.156 29.5893C272.392 29.4292 272.796 29.2969 273.235 29.3248C273.68 29.3526 274.063 29.5197 274.279 29.7077C274.509 29.9026 274.579 30.0837 274.516 30.1672Z" fill="#263238"/>
<path d="M258.779 35.5835C258.696 35.5417 255.312 34.4626 255.34 37.9437C255.368 41.4318 258.849 40.6868 258.856 40.5893C258.856 40.4919 258.779 35.5835 258.779 35.5835Z" fill="#FFBE9D"/>
<path d="M257.786 39.2798C257.772 39.2658 257.723 39.3215 257.626 39.3703C257.528 39.419 257.354 39.4469 257.173 39.3842C256.804 39.2519 256.491 38.6671 256.47 38.0405C256.456 37.7202 256.526 37.4209 256.63 37.1702C256.734 36.9126 256.895 36.7386 257.083 36.7038C257.264 36.662 257.396 36.7734 257.445 36.8708C257.493 36.9683 257.472 37.0379 257.486 37.0449C257.493 37.0519 257.563 36.9892 257.528 36.843C257.514 36.7734 257.472 36.6898 257.389 36.6272C257.305 36.5575 257.18 36.5227 257.055 36.5436C256.79 36.5645 256.546 36.8151 256.428 37.0867C256.289 37.3652 256.212 37.7063 256.226 38.0614C256.254 38.7646 256.616 39.419 257.117 39.5583C257.361 39.6209 257.563 39.5443 257.667 39.4608C257.779 39.3633 257.793 39.2867 257.786 39.2798Z" fill="#102A54"/>
<path d="M273.594 24.9519C274.151 24.6316 272.432 22.8284 271.039 22.2227C268.937 21.3037 265.734 20.7676 263.819 21.3524C261.508 22.0486 259.6 23.2392 258.472 25.3696C257.345 27.507 256.941 29.9786 257.045 32.3945C257.08 33.1325 257.164 33.8983 257.567 34.518C258.069 35.2838 259.002 35.7503 258.981 36.8155C258.974 37.2054 259.085 37.5953 259.357 37.8737C260.004 38.5421 260.77 37.8946 261.118 37.2471C261.863 35.8686 261.919 34.2395 261.96 32.673C261.988 31.559 262.016 30.4242 261.689 29.359C261.508 28.7811 261.229 28.238 261.083 27.6462C260.937 27.0614 260.944 26.393 261.299 25.9057C261.355 25.8291 261.452 25.7247 261.578 25.6133C262.545 24.7291 263.924 24.4506 265.163 24.8683C267.133 25.5297 270.489 26.5184 271.353 25.8361C272.592 24.8544 272.884 24.2278 272.884 24.2278L273.594 24.9519Z" fill="#263238"/>
<path d="M264.008 20.8788C265.908 20.2104 268.081 20.2034 269.884 21.1085C270.838 21.5889 271.708 22.3617 272.014 23.3921C272.321 24.4225 271.903 25.6966 270.914 26.1144L270.845 26.1561C269.369 26.6783 268.401 26.4973 266.918 26.0099C265.665 25.5992 264.551 24.8472 263.298 24.4365C261.968 24.0048 260.506 23.9839 259.162 24.3808C260.471 22.8421 262.107 21.5471 264.008 20.8788Z" fill="#263238"/>
<path d="M96.2313 275.843L87.4519 289.976C87.4519 289.976 98.87 303.65 97.4984 306.414L69.4824 290.373L82.2581 267.795L96.2313 275.843Z" fill="#524B7D"/>
<path d="M79.4899 283.802C78.8633 283.642 78.1392 284.032 77.9512 284.652C77.7633 285.271 78.1601 286.009 78.7797 286.183C79.4063 286.358 80.2836 285.912 80.4019 285.271C80.5203 284.638 80.0051 283.788 79.3576 283.775" fill="#102A54"/>
<g opacity="0.6">
<path d="M69.4824 290.38L70.8609 288.153L97.206 304.361C97.206 304.361 98.1459 305.614 97.4984 306.414L69.4824 290.38Z" fill="white"/>
</g>
<path d="M88.0127 290.092C87.9291 290.224 87.212 289.897 86.2861 289.953C85.3601 289.981 84.6708 290.377 84.5803 290.252C84.4689 290.155 85.1443 289.451 86.2652 289.403C87.3791 289.347 88.1102 289.98 88.0127 290.092Z" fill="#263238"/>
<path d="M90.2585 292.99C90.2167 293.143 89.4857 293.032 88.692 293.345C87.8844 293.637 87.4109 294.194 87.2787 294.111C87.1394 294.062 87.5015 293.206 88.4971 292.837C89.4926 292.454 90.3281 292.858 90.2585 292.99Z" fill="#263238"/>
<path d="M89.8963 297.465C89.757 297.424 89.9589 296.63 90.7387 296.08C91.5185 295.523 92.3261 295.6 92.3191 295.746C92.333 295.906 91.6856 296.066 91.052 296.526C90.4115 296.971 90.0425 297.528 89.8963 297.465Z" fill="#263238"/>
<path d="M89.6437 286.656C89.5183 286.746 88.9962 286.196 88.1955 285.806C87.4018 285.403 86.6499 285.312 86.6429 285.159C86.6221 285.013 87.4993 284.846 88.4392 285.319C89.3791 285.779 89.769 286.586 89.6437 286.656Z" fill="#263238"/>
<path d="M95.0459 281.652L94.099 298.264C94.099 298.264 110.662 304.801 110.787 307.892L78.5176 307.217L78.9283 281.276L95.0459 281.652Z" fill="#524B7D"/>
<path d="M84.1586 296.652C83.532 296.812 83.0864 297.501 83.2187 298.135C83.3509 298.768 84.0541 299.228 84.6807 299.082C85.3143 298.935 85.8713 298.121 85.6694 297.501C85.4675 296.888 84.6181 296.394 84.0402 296.687" fill="#102A54"/>
<g opacity="0.6">
<path d="M78.5176 307.209L78.6638 304.598L109.555 306.228C109.555 306.228 110.975 306.882 110.794 307.892L78.5176 307.209Z" fill="white"/>
</g>
<path d="M94.6061 298.106C94.5992 298.266 93.8055 298.322 93.0188 298.809C92.2181 299.283 91.8073 299.951 91.6611 299.888C91.5149 299.854 91.7725 298.921 92.7333 298.343C93.6941 297.751 94.641 297.96 94.6061 298.106Z" fill="#263238"/>
<path d="M97.983 299.577C98.0178 299.73 97.3285 299.981 96.7785 300.642C96.2076 301.282 96.0614 302 95.9013 301.986C95.7551 302.007 95.6645 301.081 96.3608 300.28C97.05 299.472 97.983 299.43 97.983 299.577Z" fill="#263238"/>
<path d="M99.8169 303.673C99.6707 303.701 99.4688 302.914 99.8935 302.058C100.311 301.201 101.063 300.874 101.126 301.006C101.209 301.139 100.722 301.591 100.388 302.294C100.033 302.998 99.9701 303.659 99.8169 303.673Z" fill="#263238"/>
<path d="M94.4232 294.302C94.3536 294.441 93.6365 294.211 92.7453 294.253C91.8541 294.274 91.151 294.559 91.0744 294.427C90.9839 294.309 91.6731 293.745 92.7244 293.71C93.7757 293.661 94.5067 294.177 94.4232 294.302Z" fill="#263238"/>
<path d="M122.75 175.622C122.75 175.622 120.585 228.249 119.249 233.144C117.912 238.038 90.592 288.076 90.592 288.076L74.1055 279.979L95.9668 227.149V176.165L122.75 175.622Z" fill="#102A54"/>
<path d="M80.4789 175.622C80.4789 175.622 78.7523 188.432 79.6365 189.769C80.5277 191.106 82.0803 195.332 82.0803 195.332L80.7435 236.478L76.7402 296.973H95.956L104.199 243.622C104.199 243.622 107.089 238.727 108.203 234.501C109.316 230.275 115.882 188.237 115.882 188.237V172.029L80.4789 175.622Z" fill="#102A54"/>
<path d="M118.013 177.87C118.02 177.87 118.006 177.975 117.985 178.184C117.957 178.407 117.909 178.713 117.86 179.096C117.734 179.917 117.56 181.094 117.331 182.591C116.85 185.647 116.161 190.033 115.319 195.443C114.455 200.874 113.425 207.328 112.283 214.499C111.698 218.084 111.12 221.851 110.452 225.75C109.77 229.642 108.913 233.673 107.458 237.627C106.01 241.575 103.942 245.174 103.246 249.066C102.418 252.916 101.84 256.69 101.276 260.275C100.19 267.453 99.3124 273.935 98.5675 279.38C97.8225 284.824 97.2238 289.224 96.7643 292.267C96.5345 293.784 96.3535 294.961 96.2073 295.762C96.1377 296.145 96.082 296.444 96.0402 296.667C95.9984 296.869 95.9775 296.973 95.9706 296.973C95.9636 296.973 95.9775 296.869 95.9984 296.66C96.0332 296.437 96.075 296.138 96.1307 295.748C96.2421 294.926 96.4092 293.75 96.6181 292.246C97.0149 289.175 97.5858 284.775 98.2959 279.345C99.0061 273.9 99.8485 267.412 100.921 260.227C101.478 256.634 102.042 252.861 102.87 248.99C103.573 245.035 105.662 241.408 107.089 237.502C108.53 233.582 109.387 229.572 110.069 225.694C110.744 221.802 111.329 218.035 111.921 214.457C113.098 207.293 114.156 200.846 115.047 195.415C115.945 190.013 116.676 185.633 117.184 182.584C117.442 181.087 117.644 179.917 117.783 179.096C117.853 178.713 117.909 178.414 117.95 178.191C117.985 177.968 118.006 177.863 118.013 177.87Z" fill="#294C86"/>
<path d="M78.8954 264.473C78.9233 264.473 78.9233 264.926 78.8954 265.747C78.8676 266.569 78.8119 267.753 78.7283 269.208C78.5612 272.132 78.2758 276.163 77.9346 280.619C77.5935 285.075 77.308 289.106 77.1131 292.023C77.0226 293.429 76.946 294.599 76.8833 295.483C76.8276 296.298 76.7789 296.75 76.7511 296.75C76.7232 296.75 76.7163 296.298 76.7232 295.476C76.7302 294.655 76.765 293.471 76.8276 292.009C76.946 289.085 77.1897 285.047 77.5308 280.591C77.8859 276.17 78.1992 272.174 78.4429 269.194C78.5612 267.787 78.6587 266.625 78.7353 265.741C78.8188 264.919 78.8745 264.473 78.8954 264.473Z" fill="#294C86"/>
<path d="M122.549 65.8552C121.303 64.5114 119.792 63.2443 119.361 61.469C118.964 59.8328 119.542 57.953 118.678 56.5119C117.62 54.7295 114.967 54.5833 113.686 52.9472C113.067 52.1535 112.851 51.1092 112.245 50.3155C111.201 48.9578 109.265 48.6515 107.574 48.8882C105.882 49.1249 104.267 49.7863 102.568 49.9604C100.235 50.1971 97.8056 49.5079 95.5846 50.2528C93.1339 51.0744 91.6928 53.3162 90.1472 55.4884L88.1281 58.0157C87.7104 58.4543 87.2578 58.8512 86.7635 59.1993C85.9002 59.798 84.9046 60.2297 84.1666 60.9816C82.5931 62.5968 82.8229 65.5906 84.6261 66.9413C82.8438 67.5748 81.6184 69.4964 81.7855 71.3832C81.876 72.4205 82.3355 73.3813 82.6837 74.363C83.0248 75.3447 83.2476 76.4447 82.8647 77.4124C82.4817 78.3802 81.2842 79.0764 80.3652 78.5891C80.7273 79.9258 81.7229 81.0746 82.997 81.6176C82.5235 82.1328 81.8482 82.46 81.152 82.5088C83.1849 86.9089 88.4136 89.0881 93.2523 88.9558C98.0841 88.8235 102.651 86.8323 107.079 84.8829L119.98 81.0676C121.115 80.7682 121.547 79.3619 121.491 78.1852C121.435 77.0086 121.101 75.7972 121.484 74.6832C122.006 73.1585 123.726 72.3022 124.283 70.7844C124.896 69.0578 123.796 67.1989 122.549 65.8552Z" fill="#263238"/>
<path d="M92.1396 78.771C91.1022 75.8538 90.0718 72.9158 89.5496 69.8594C89.0275 66.8029 89.0275 63.6073 90.0231 60.6692C90.1763 60.2236 91.4782 57.2299 91.9447 57.2647C92.2788 57.2856 91.4991 60.0705 91.6801 60.349C93.3649 63.0712 93.901 66.3852 93.7339 69.5878C93.5668 72.7905 92.982 75.6798 92.1396 78.771Z" fill="#263238"/>
<path d="M103.599 52.2238L102.882 52.2029C95.1399 52.4605 91.0321 59.2069 91.5056 66.9628L91.6936 93.7116C91.7284 98.5504 95.5367 102.512 100.355 102.735C105.416 102.964 109.684 98.989 109.83 93.9135C109.872 92.5072 109.907 91.5255 109.914 91.5255C109.914 91.5255 117.377 90.5508 117.656 83.1012C117.788 79.5017 117.461 72.0661 117.092 65.3406C116.688 58.1068 110.812 52.4048 103.599 52.2238Z" fill="#FFBE9D"/>
<path d="M109.922 91.5242C109.922 91.5242 105.23 91.6844 100.314 88.4121C100.314 88.4121 102.424 93.9262 109.853 93.4388L109.922 91.5242Z" fill="#102A54"/>
<path d="M115.221 71.4323C115.228 71.9963 114.755 72.4627 114.17 72.4836C113.585 72.4975 113.105 72.0589 113.098 71.495C113.091 70.931 113.564 70.4646 114.149 70.4437C114.734 70.4298 115.214 70.8684 115.221 71.4323Z" fill="#263238"/>
<path d="M115.423 68.3934C115.291 68.5257 114.497 67.913 113.355 67.8852C112.213 67.8434 111.364 68.4143 111.239 68.2681C111.176 68.2055 111.322 67.9548 111.691 67.6972C112.06 67.4396 112.68 67.1959 113.39 67.2168C114.1 67.2377 114.692 67.5162 115.033 67.7947C115.381 68.0801 115.493 68.3308 115.423 68.3934Z" fill="#263238"/>
<path d="M104.237 71.4343C104.244 71.9982 103.77 72.4647 103.186 72.4856C102.601 72.4995 102.12 72.0609 102.113 71.4969C102.106 70.933 102.58 70.4665 103.165 70.4456C103.749 70.4317 104.23 70.8703 104.237 71.4343Z" fill="#263238"/>
<path d="M104.2 68.5758C104.068 68.7081 103.274 68.0954 102.133 68.0676C100.991 68.0258 100.141 68.5967 100.016 68.4505C99.9604 68.3878 100.093 68.1372 100.469 67.8796C100.838 67.622 101.457 67.3783 102.167 67.3992C102.878 67.4201 103.469 67.6986 103.811 67.9771C104.159 68.2555 104.27 68.5131 104.2 68.5758Z" fill="#263238"/>
<path d="M108.105 77.481C108.098 77.4184 108.815 77.307 109.971 77.1886C110.263 77.1677 110.542 77.112 110.597 76.9171C110.674 76.7082 110.556 76.3879 110.423 76.0468C110.166 75.3297 109.901 74.5847 109.616 73.798C108.495 70.5954 107.694 67.9706 107.82 67.9219C107.952 67.8801 108.961 70.4352 110.082 73.6379C110.354 74.4246 110.611 75.1765 110.855 75.9006C110.96 76.2348 111.141 76.6177 110.98 77.0494C110.897 77.2652 110.681 77.4184 110.493 77.4671C110.305 77.5228 110.138 77.5158 109.999 77.5228C108.822 77.5576 108.105 77.5437 108.105 77.481Z" fill="#263238"/>
<path d="M104.708 78.1869C104.896 78.1799 104.868 79.4262 105.906 80.3312C106.943 81.2433 108.266 81.1389 108.273 81.3129C108.287 81.3895 107.973 81.5496 107.416 81.5496C106.866 81.5566 106.073 81.3617 105.439 80.8047C104.805 80.2477 104.548 79.5167 104.513 79.0084C104.478 78.4863 104.624 78.1799 104.708 78.1869Z" fill="#263238"/>
<path d="M104.266 63.9266C104.148 64.233 103.006 64.0589 101.662 64.1912C100.319 64.2956 99.2255 64.6577 99.0514 64.3722C98.9748 64.2399 99.1698 63.9475 99.6154 63.6551C100.054 63.3627 100.757 63.0981 101.558 63.0285C102.365 62.9589 103.096 63.1051 103.584 63.3209C104.078 63.5298 104.315 63.7804 104.266 63.9266Z" fill="#263238"/>
<path d="M115.055 64.5749C114.846 64.8325 114.066 64.5401 113.119 64.5052C112.173 64.4356 111.365 64.6375 111.191 64.359C111.114 64.2267 111.247 63.9691 111.602 63.7324C111.95 63.4957 112.535 63.3077 113.182 63.3425C113.83 63.3774 114.387 63.628 114.714 63.9065C115.041 64.178 115.145 64.4495 115.055 64.5749Z" fill="#263238"/>
<path d="M91.9675 72.4973C91.8421 72.4416 86.899 70.8542 86.9338 75.9575C86.9686 81.0608 92.0719 79.9677 92.0789 79.8215C92.0858 79.6753 91.9675 72.4973 91.9675 72.4973Z" fill="#FFBE9D"/>
<path d="M90.5214 77.9014C90.5005 77.8874 90.4309 77.964 90.2846 78.0337C90.1384 78.1033 89.8878 78.152 89.6232 78.0545C89.0871 77.8596 88.6276 77.0102 88.5928 76.0912C88.5789 75.6247 88.6694 75.1861 88.8295 74.8171C88.9827 74.4412 89.2194 74.1835 89.491 74.1279C89.7625 74.0652 89.9505 74.2253 90.0131 74.3646C90.0827 74.5038 90.0479 74.6082 90.0758 74.6152C90.0897 74.6291 90.1872 74.5317 90.1384 74.3158C90.1175 74.2114 90.0549 74.093 89.9365 73.9956C89.8112 73.8981 89.6372 73.8494 89.4422 73.8703C89.0523 73.8981 88.6972 74.2671 88.5232 74.6709C88.3213 75.0747 88.2099 75.576 88.2238 76.0912C88.2656 77.1216 88.7947 78.0754 89.5327 78.2843C89.8878 78.3748 90.1872 78.2634 90.3403 78.1451C90.5074 78.0267 90.5353 77.9083 90.5214 77.9014Z" fill="#102A54"/>
<path d="M113.675 56.9441C114.489 56.4776 111.976 53.839 109.943 52.9548C106.866 51.611 102.18 50.8313 99.3743 51.6737C95.9976 52.6902 93.2058 54.4307 91.5487 57.5568C89.8917 60.6828 89.3139 64.3032 89.467 67.833C89.5158 68.9122 89.6411 70.0331 90.2329 70.9382C90.9639 72.0521 92.3355 72.7414 92.3007 74.3009C92.2867 74.8718 92.4608 75.4427 92.8507 75.8465C93.7975 76.8212 94.9185 75.8744 95.4267 74.9275C96.5128 72.9154 96.5964 70.5274 96.659 68.2368C96.7008 66.6077 96.7426 64.9437 96.2622 63.3911C95.9976 62.5417 95.5868 61.748 95.371 60.8917C95.1552 60.0353 95.1691 59.0537 95.6913 58.3366C95.7748 58.2182 95.921 58.072 96.0951 57.9119C97.5154 56.6238 99.5275 56.2131 101.338 56.8258C104.22 57.7935 109.135 59.2347 110.395 58.2391C112.213 56.8049 112.637 55.8859 112.637 55.8859L113.675 56.9441Z" fill="#263238"/>
<path d="M99.6032 50.9781C102.381 49.9964 105.563 49.9964 108.202 51.3123C109.601 52.0155 110.875 53.1434 111.321 54.6472C111.766 56.151 111.153 58.0169 109.712 58.6365L109.615 58.6992C107.457 59.465 106.043 59.1935 103.864 58.4834C102.033 57.8777 100.397 56.7776 98.5658 56.1858C96.6164 55.5523 94.479 55.5244 92.5156 56.1023C94.4302 53.8535 96.8252 51.9598 99.6032 50.9781Z" fill="#263238"/>
<path d="M81.1574 135.805C80.858 142.085 79.1035 177.822 79.1035 177.822C79.1035 177.822 90.8975 182.132 104.523 180.461C118.148 178.79 123.926 181.394 123.926 181.394L119.909 119.012L109.709 95.2223C109.709 95.2223 95.4717 93.2868 91.7051 93.7046C91.7051 93.7046 88.6069 95.7027 87.862 96.5521C84.0397 100.903 81.4359 110.191 81.2897 117.926L81.1574 135.805Z" fill="#5245A8"/>
<g opacity="0.3">
<path d="M102.713 121.017C98.9461 117.787 93.8358 119.207 91.2598 114.96C94.0934 122.138 97.6024 129.051 101.71 135.582C101.975 136 102.267 136.438 102.727 136.626C103.722 137.03 104.683 136.049 105.588 135.464C107.273 134.385 109.529 134.67 111.332 135.547C113.128 136.424 114.618 137.817 116.226 139.001C117.842 140.184 119.714 141.208 121.713 141.145C116.115 133.793 109.738 127.032 102.713 121.017Z" fill="black"/>
</g>
<path d="M117.973 117.244L127.546 126.037L137.899 102.477L146.65 105.408C146.65 105.408 137.251 140.247 134.807 142.907C131.473 146.541 125.979 146.054 123.104 143.499C119.804 140.568 107.467 128.391 107.467 128.391L117.973 117.244Z" fill="#FFBE9D"/>
<path d="M127.543 131.795C127.445 131.802 127.25 130.479 127.271 128.829C127.292 127.179 127.522 125.863 127.612 125.87C127.717 125.884 127.647 127.207 127.633 128.829C127.605 130.465 127.64 131.788 127.543 131.795Z" fill="#102A54"/>
<path d="M137.346 104.803L139.17 93.0369C139.232 92.6401 139.441 92.285 139.755 92.0344L140.534 91.4147C140.534 91.4147 140.437 91.2546 141.829 89.4375C143.222 87.6203 145.206 87.6412 145.7 88.6786C145.7 88.6786 148.297 87.3349 148.868 89.2008C149.202 90.2938 148.2 91.8046 148.2 91.8046C148.2 91.8046 150.609 92.5705 149.662 95.5433C149.662 95.5433 150.957 95.5155 149.759 98.7668C149.251 100.152 145.645 107.386 145.645 107.386L137.346 104.803Z" fill="#FFBE9D"/>
<path d="M130.679 95.759C130.839 96.2742 131.41 96.5318 131.904 96.3229L143.997 91.1431L145.592 88.748L131.201 94.645C130.762 94.8261 130.533 95.3065 130.679 95.759Z" fill="#263238"/>
<path d="M148.73 90.8506C148.807 90.8994 148.417 91.8184 147.79 92.8975C147.171 93.9906 146.363 94.6798 146.293 94.5963C146.231 94.5267 146.871 93.7817 147.477 92.7165C148.097 91.6513 148.64 90.788 148.73 90.8506Z" fill="#102A54"/>
<path d="M142.403 93.6209C142.32 93.5652 143.002 92.4026 143.935 91.024C144.861 89.6455 145.683 88.5733 145.766 88.629C145.85 88.6847 145.167 89.8474 144.234 91.2259C143.308 92.6045 142.487 93.6766 142.403 93.6209Z" fill="#102A54"/>
<path d="M148.739 96.8868C148.669 96.8172 148.913 96.4621 149.17 96.0166C149.435 95.5779 149.623 95.195 149.727 95.2229C149.825 95.2438 149.776 95.7172 149.484 96.2045C149.198 96.6919 148.808 96.9565 148.739 96.8868Z" fill="#102A54"/>
<path d="M119.163 116.081L103.602 132.463C97.921 127.04 92.755 118.386 90.0954 111.173C89.246 108.868 88.9327 105.373 89.5872 102.999C90.2486 100.604 90.9727 99.9219 92.6366 98.5225C92.6366 98.5225 97.6564 94.5122 104.633 100.702C108.866 104.468 119.163 116.081 119.163 116.081Z" fill="#5245A8"/>
<path d="M119.162 116.082C119.155 116.082 119.092 116.026 118.981 115.908C118.856 115.775 118.688 115.601 118.48 115.378C118.034 114.891 117.393 114.202 116.579 113.318C114.929 111.528 112.555 108.931 109.547 105.791C108.036 104.232 106.386 102.505 104.492 100.8C103.518 99.9988 102.487 99.1634 101.269 98.5786C100.078 97.9659 98.7417 97.5203 97.3283 97.4437C95.9289 97.3602 94.4529 97.6456 93.1719 98.3767C91.9953 99.2052 90.7699 100.249 90.213 101.67C89.9205 102.373 89.6978 103.132 89.5655 103.898C89.4332 104.671 89.3984 105.464 89.4123 106.265C89.4471 107.859 89.6908 109.488 90.2269 111.034C91.856 115.42 93.9795 119.451 96.2701 123.051C98.5746 126.643 101.074 129.818 103.699 132.359L103.483 132.366C108.169 127.479 112.06 123.42 114.804 120.565C116.168 119.152 117.247 118.038 117.999 117.258C118.361 116.889 118.647 116.597 118.849 116.388C119.05 116.186 119.162 116.082 119.162 116.082C119.169 116.082 119.078 116.186 118.904 116.381C118.709 116.597 118.438 116.882 118.097 117.258C117.366 118.045 116.314 119.166 114.985 120.593C112.255 123.489 108.377 127.611 103.713 132.568L103.608 132.68L103.497 132.575C100.83 130.027 98.3031 126.845 95.9846 123.232C93.6732 119.611 91.5358 115.573 89.8927 111.145C89.3357 109.551 89.099 107.894 89.0572 106.265C89.0433 105.45 89.0851 104.636 89.2174 103.835C89.3566 103.034 89.5864 102.269 89.8927 101.531C90.199 100.793 90.6585 100.11 91.2155 99.5533C91.494 99.2748 91.7795 99.0172 92.0719 98.7665L92.5105 98.3975C92.6776 98.2653 92.8377 98.1747 93.0048 98.0703C94.3555 97.3045 95.8872 97.0121 97.3492 97.1026C98.8183 97.1861 100.197 97.6526 101.415 98.2861C102.661 98.8988 103.699 99.7482 104.687 100.57C106.588 102.303 108.224 104.03 109.728 105.61C112.715 108.778 115.061 111.403 116.683 113.22C117.477 114.125 118.097 114.828 118.528 115.33C118.723 115.559 118.883 115.747 119.002 115.887C119.12 116.012 119.169 116.089 119.162 116.082Z" fill="#263238"/>
</svg>
